<svg aria-hidden="true" style="position: absolute; width: 0; height: 0; overflow: hidden;" version="1.1" xmlns="http://www.w3.org/2000/svg" xmlns:xlink="http://www.w3.org/1999/xlink">
<defs>
<symbol id="youtube" viewBox="0 0 44 32">
<path d="M41.811 5.217c-0.234-0.931-0.691-1.78-1.328-2.461s-1.429-1.173-2.299-1.424c-3.2-0.921-16.030-0.921-16.030-0.921s-12.83 0-16.030 0.916c-0.87 0.25-1.663 0.741-2.299 1.423s-1.094 1.531-1.327 2.462c-0.856 3.43-0.856 10.583-0.856 10.583s0 7.153 0.856 10.578c0.472 1.891 1.864 3.381 3.626 3.885 3.201 0.921 16.030 0.921 16.030 0.921s12.83 0 16.030-0.921c1.767-0.505 3.155-1.994 3.626-3.885 0.856-3.425 0.856-10.578 0.856-10.578s0-7.153-0.856-10.578zM18.080 22.36v-13.131l10.623 6.516-10.623 6.614z"></path>
</symbol>
<symbol id="facebook" viewBox="0 0 32 32">
<path d="M29.63 1.185h-27.259c-0.656 0-1.185 0.53-1.185 1.185v27.259c0 0.656 0.53 1.185 1.185 1.185h27.259c0.655 0 1.185-0.53 1.185-1.185v-27.259c0-0.656-0.53-1.185-1.185-1.185zM26.208 9.833h-2.367c-1.855 0-2.215 0.881-2.215 2.178v2.856h4.43l-0.578 4.47h-3.852v11.478h-4.619v-11.474h-3.863v-4.474h3.863v-3.296c0-3.826 2.337-5.911 5.752-5.911 1.637 0 3.041 0.122 3.452 0.178v3.996h-0.004z"></path>
</symbol>
<symbol id="instagram" viewBox="0 0 32 32">
<path d="M15.997 11.060c-2.72 0-4.94 2.22-4.94 4.94s2.22 4.94 4.94 4.94c2.72 0 4.94-2.22 4.94-4.94s-2.22-4.94-4.94-4.94zM30.814 16c0-2.046 0.019-4.073-0.096-6.115-0.115-2.372-0.656-4.477-2.39-6.212-1.738-1.738-3.84-2.276-6.212-2.39-2.046-0.115-4.073-0.096-6.115-0.096-2.046 0-4.073-0.019-6.115 0.096-2.372 0.115-4.477 0.656-6.212 2.39-1.738 1.738-2.276 3.84-2.39 6.212-0.115 2.046-0.096 4.073-0.096 6.115s-0.019 4.073 0.096 6.115c0.115 2.372 0.656 4.477 2.39 6.212 1.738 1.738 3.84 2.276 6.212 2.391 2.046 0.115 4.073 0.096 6.115 0.096 2.046 0 4.073 0.018 6.115-0.096 2.372-0.115 4.477-0.656 6.212-2.391 1.738-1.738 2.276-3.84 2.39-6.212 0.119-2.042 0.096-4.069 0.096-6.115zM15.997 23.602c-4.207 0-7.601-3.395-7.601-7.601s3.395-7.601 7.601-7.601c4.207 0 7.601 3.395 7.601 7.601s-3.395 7.601-7.601 7.601zM23.91 9.863c-0.982 0-1.775-0.793-1.775-1.775s0.793-1.775 1.775-1.775c0.982 0 1.775 0.793 1.775 1.775 0 0.233-0.046 0.464-0.135 0.68s-0.22 0.411-0.385 0.576c-0.165 0.165-0.361 0.296-0.576 0.385s-0.447 0.135-0.68 0.135z"></path>
</symbol>
<symbol id="twitter" viewBox="0 0 32 32">
<path d="M29.63 1.185h-27.259c-0.656 0-1.185 0.53-1.185 1.185v27.259c0 0.656 0.53 1.185 1.185 1.185h27.259c0.655 0 1.185-0.53 1.185-1.185v-27.259c0-0.656-0.53-1.185-1.185-1.185zM23.975 11.915c0.011 0.174 0.011 0.356 0.011 0.533 0 5.437-4.141 11.7-11.707 11.7-2.333 0-4.496-0.678-6.319-1.844 0.333 0.037 0.652 0.052 0.993 0.052 1.926 0 3.696-0.652 5.107-1.756-1.807-0.037-3.326-1.222-3.844-2.852 0.633 0.093 1.204 0.093 1.856-0.074-0.931-0.189-1.767-0.695-2.367-1.43s-0.927-1.657-0.925-2.607v-0.052c0.544 0.307 1.185 0.496 1.856 0.522-0.564-0.376-1.026-0.884-1.346-1.481s-0.487-1.264-0.488-1.941c0-0.767 0.2-1.467 0.559-2.074 1.033 1.272 2.322 2.312 3.783 3.052s3.062 1.166 4.698 1.248c-0.581-2.796 1.507-5.059 4.019-5.059 1.185 0 2.252 0.496 3.004 1.296 0.93-0.174 1.819-0.522 2.611-0.989-0.307 0.952-0.952 1.756-1.807 2.263 0.83-0.089 1.63-0.319 2.37-0.641-0.559 0.822-1.259 1.552-2.063 2.133z"></path>
</symbol>
<symbol id="arrow" viewBox="0 0 42 32">
<path d="M41.414 17.414c0.781-0.781 0.781-2.047 0-2.828l-12.728-12.728c-0.781-0.781-2.047-0.781-2.828 0s-0.781 2.047 0 2.828l11.314 11.314-11.314 11.314c-0.781 0.781-0.781 2.047 0 2.828s2.047 0.781 2.828 0l12.728-12.728zM0 18h40v-4h-40v4z"></path>
</symbol>
<symbol id="chiken" viewBox="0 0 60 32">
<path d="M58.893 6.151c-0.395-0.817-1.107-1.396-1.976-1.634 0.474-0.843 0.553-1.871 0.132-2.767-0.369-0.764-1.028-1.344-1.871-1.607-0.817-0.237-1.686-0.184-2.477 0.184-1.291 0.606-2.002 2.134-2.002 3.478-1.555 0.711-5.217 2.371-7.035 3.215-0.184-0.026-0.395-0.053-0.632-0.053-1.107 0-3.162 0.316-5.375 0.764-3.794-2.898-8.3-4.453-13.043-4.453-11.857 0-21.553 9.749-21.948 21.896-1.37 0.343-2.398 1.555-2.398 3.004 0 1.713 1.449 3.109 3.215 3.109h43.37c1.765 0 3.215-1.396 3.215-3.109s-1.449-3.109-3.215-3.109h-0.263c-0.132-3.583-1.107-7.088-2.793-10.197l2.398-1.871c0.158-0.132 0.29-0.316 0.369-0.527 0-0.026 0.026-0.105 0.053-0.211 1.792-0.843 4.848-2.292 6.403-3.030 0.817 1.344 2.635 1.871 4.189 1.133 1.634-0.764 2.398-2.661 1.686-4.216zM47.905 28.179c0 0.553-0.501 1.001-1.107 1.001h-43.37c-0.606 0-1.107-0.448-1.107-1.001s0.501-1.001 1.107-1.001h43.37c0.606 0 1.107 0.448 1.107 1.001zM44.427 25.070h-39.708c0.448-10.935 9.196-19.683 19.841-19.683 3.663 0 7.14 1.001 10.197 2.925-3.373 0.738-6.429 1.502-6.693 1.555-0.079 0.026-0.922 0.422-0.922 0.422-2.398 1.133-4.796 5.586-3.083 9.222 1.265 2.688 4.427 3.926 6.824 3.926 0.869 0 1.66-0.158 2.266-0.448 0.316-0.158 0.632-0.343 0.896-0.606l7.984-6.192c1.449 2.714 2.266 5.744 2.398 8.879zM32.755 20.722c-0.026 0.026-0.053 0.026-0.053 0.053-0.132 0.105-0.263 0.211-0.422 0.263-0.343 0.158-0.817 0.237-1.37 0.237-1.792 0-4.058-0.922-4.901-2.714-1.186-2.529 0.685-5.744 2.082-6.403l0.632-0.29c3.241-0.817 11.831-2.793 14.281-2.793 0.211 0 0.29 0.026 0.316 0.026 0.527 0.132 0.896 0.369 1.080 0.738 0.263 0.474 0.263 1.107 0.211 1.555v0.026c0 0.053-0.026 0.105-0.026 0.158l-11.831 9.143zM56.258 8.47c-0.632 0.29-1.317 0.105-1.528-0.369-0.026-0.053-0.29-0.632-0.29-0.659l-0.422-1.028-1.001 0.474c0 0-3.768 1.792-6.376 3.030-0.079-0.369-0.211-0.738-0.395-1.107-0.105-0.184-0.211-0.343-0.343-0.501 2.609-1.186 6.376-2.898 6.376-2.898l0.869-0.395-0.29-0.896c-0.158-0.527 0.211-1.607 0.764-1.871 0.316-0.158 0.659-0.184 0.975-0.079 0.158 0.053 0.422 0.184 0.58 0.474 0.211 0.448-0.026 1.028-0.553 1.344l-0.791 0.501 0.949 2.319 0.948-0.237c0.553-0.132 1.107 0.053 1.291 0.474 0.184 0.474-0.132 1.133-0.764 1.423z"></path>
<path d="M8.909 18.523c-0.58 0-1.054 0.474-1.054 1.054v0.343c0 0.58 0.474 1.054 1.054 1.054s1.054-0.474 1.054-1.054v-0.343c0-0.58-0.474-1.054-1.054-1.054z"></path>
<path d="M12.281 18.128v-0.343c0-0.58-0.474-1.054-1.054-1.054s-1.054 0.474-1.054 1.054v0.343c0 0.58 0.474 1.054 1.054 1.054s1.054-0.474 1.054-1.054z"></path>
<path d="M11.807 20.315c-0.58 0-1.054 0.474-1.054 1.054v0.343c0 0.58 0.474 1.054 1.054 1.054s1.054-0.474 1.054-1.054v-0.343c0-0.58-0.474-1.054-1.054-1.054z"></path>
</symbol>
<symbol id="burger" viewBox="0 0 45 32">
<path d="M41.582 24.3c0.876-0.701 1.402-1.621 1.402-2.673 0-1.271-0.789-2.388-2.060-3.112 1.271-0.723 2.082-1.841 2.082-3.133 0-0.855-0.351-1.621-0.964-2.279 0.131-0.044 0.241-0.088 0.351-0.175 1.424-1.227 2.147-2.542 2.147-3.966 0-2.542-2.41-4.864-6.771-6.53-4.097-1.556-9.532-2.432-15.294-2.432s-11.197 0.855-15.294 2.432c-4.338 1.687-6.749 4.010-6.749 6.552 0 1.424 0.723 2.739 2.147 3.966 0.11 0.11 0.263 0.175 0.394 0.197-0.614 0.635-0.964 1.402-0.964 2.257 0 1.271 0.789 2.388 2.060 3.111-1.271 0.723-2.082 1.841-2.082 3.133 0 1.008 0.504 1.906 1.337 2.607-1.359 0.614-2.323 1.906-2.323 3.44 0 2.104 1.797 3.791 4.032 3.791h34.664c2.213 0 4.032-1.709 4.032-3.791 0.022-1.49-0.855-2.761-2.147-3.396zM5.823 23.577l1.994-2.805 1.030 3.090h-1.205c-0.657 0-1.271-0.11-1.819-0.285zM28.698 13.169l-6.135 4.273-5.938-4.273h12.073zM38.734 19.545l-0.745 2.52c-0.109-0.263-0.219-0.504-0.307-0.767-0.307-0.767-0.592-1.402-0.789-1.906h0.482c0.46 0 0.92 0.066 1.359 0.153zM33.059 22.35l-1.271-2.958h2.367c-0.197 0.504-0.438 1.139-0.723 1.928-0.131 0.351-0.263 0.701-0.373 1.030zM23.878 19.392l-1.578 3.199-1.293-3.199h2.87zM9.197 19.392h3.177l-2.060 3.309-1.117-3.309zM13.82 20.378l1.534 3.484h-3.703l2.169-3.484zM15.288 19.392h3.002l-1.578 3.265-1.424-3.265zM19.627 20.685l1.293 3.199h-2.827l1.534-3.199zM25.193 20.685l1.227 3.177h-2.783l1.556-3.177zM26.573 19.392h2.52l-1.337 3.068-1.183-3.068zM30.43 20.706l1.358 3.155h-2.739l1.381-3.155zM35.535 20.685c0.373 0.877 0.833 2.016 1.293 3.177h-2.454c0.416-1.139 0.811-2.279 1.161-3.177zM39.391 23.511l0.964-3.265c0.548 0.394 0.876 0.876 0.876 1.381 0 0.767-0.745 1.468-1.841 1.884zM37.397 17.639h-12.073l6.42-4.47h5.653c2.060 0 3.878 1.052 3.878 2.235s-1.819 2.235-3.878 2.235zM2.185 8.984c0-1.753 2.060-3.528 5.631-4.886 3.9-1.49 9.115-2.301 14.659-2.301s10.759 0.811 14.659 2.301c3.593 1.359 5.631 3.155 5.631 4.886 0 0.811-0.438 1.621-1.315 2.432h-37.951c-0.855-0.811-1.315-1.621-1.315-2.432zM7.663 13.169h5.938l6.201 4.47h-12.139c-2.060 0-3.878-1.052-3.878-2.235 0.022-1.205 1.819-2.235 3.878-2.235zM6.59 19.479l-2.301 3.221c-0.329-0.329-0.526-0.701-0.526-1.074 0-0.986 1.227-1.863 2.827-2.147zM39.72 29.712h-34.664c-1.249 0-2.279-0.92-2.279-2.038s1.030-2.038 2.279-2.038h34.686c1.249 0 2.279 0.92 2.279 2.038s-1.030 2.038-2.301 2.038z"></path>
<path d="M11.147 7.318c0.482 0 0.876-0.394 0.876-0.876v-0.285c0-0.482-0.394-0.876-0.876-0.876s-0.876 0.394-0.876 0.876v0.285c0 0.482 0.394 0.876 0.876 0.876z"></path>
<path d="M13.053 5.829c0.482 0 0.876-0.394 0.876-0.876v-0.285c0-0.482-0.394-0.876-0.876-0.876s-0.876 0.394-0.876 0.876v0.285c0 0.482 0.394 0.876 0.876 0.876z"></path>
<path d="M12.681 7.647v0.285c0 0.482 0.394 0.876 0.876 0.876s0.876-0.394 0.876-0.876v-0.285c0-0.482-0.394-0.876-0.876-0.876s-0.876 0.394-0.876 0.876z"></path>
</symbol>
<symbol id="noodles" viewBox="0 0 30 32">
<path d="M29.537 15.799c0-0.141 0-0.309-0.014-0.492-0.014-0.295-0.267-0.535-0.563-0.535h-0.38c-0.155-4.037-3.446-7.272-7.483-7.272-1.983 0-3.784 0.788-5.134 2.054-0.281-0.577-0.745-1.196-1.421-1.843-0.745-0.731-1.125-1.463-1.266-2.138h14.965c0.309 0 0.563-0.253 0.563-0.563s-0.253-0.563-0.563-0.563h-15.022c0.056-0.647 0.281-1.153 0.422-1.421l14.67-1.603c0.309-0.028 0.535-0.309 0.492-0.619-0.028-0.309-0.309-0.534-0.619-0.492l-21.168 2.321c-0.309 0.028-0.534 0.309-0.492 0.619 0.028 0.281 0.281 0.506 0.563 0.506 0.014 0 0.042 0 0.056 0l0.324-0.028c-0.084 0.225-0.141 0.464-0.155 0.745h-0.225c-0.309 0-0.563 0.253-0.563 0.563s0.253 0.563 0.563 0.563h0.436c0.267 0.633 0.788 1.21 1.575 1.73 1.35 0.9 1.28 1.322 1.28 1.336-0.028 0.169-0.436 0.464-1.378 0.647-0.38-0.084-0.774-0.127-1.181-0.127-3.080 0-5.598 2.49-5.682 5.584h-1.561c-0.295 0-0.549 0.239-0.563 0.535-0.014 0.183-0.014 0.338-0.014 0.492 0 5.218 3.544 9.733 8.636 11.773-0.675 0.028-1.21 0.591-1.21 1.266v1.589c0 0.703 0.563 1.266 1.266 1.266h11.351c0.703 0 1.266-0.563 1.266-1.266v-1.589c0-0.506-0.295-0.942-0.717-1.139 5.26-1.983 8.945-6.569 8.945-11.899zM21.112 8.625c3.418 0 6.203 2.729 6.357 6.146h-0.816c-0.169-2.897-2.63-5.204-5.64-5.204s-5.485 2.307-5.64 5.204h-0.619c0.042-0.788 0.211-1.547 0.506-2.236 0.492-0.338 0.83-0.759 0.956-1.266 0.028-0.127 0.056-0.253 0.070-0.394 1.153-1.378 2.883-2.25 4.824-2.25zM24.178 14.772c-0.155-1.575-1.519-2.813-3.179-2.813s-3.024 1.238-3.179 2.813h-1.308c0.169-2.279 2.124-4.079 4.515-4.079s4.346 1.8 4.515 4.079h-1.364zM23.039 14.772h-4.093c0.155-0.956 1.013-1.688 2.040-1.688 1.041 0 1.899 0.731 2.053 1.688zM15.134 10.51c-0.281 0.38-0.535 0.802-0.76 1.238-0.281 0.141-0.577 0.239-0.759 0.281-0.295 0.070-0.478 0.38-0.408 0.689 0.070 0.253 0.295 0.422 0.549 0.422 0.042 0 0.070 0 0.113-0.014-0.141 0.534-0.225 1.083-0.239 1.646h-0.127c-0.028-1.21-0.436-2.335-1.111-3.249 0.886-0.323 1.449-0.844 1.603-1.491 0.155-0.619-0.070-1.28-0.647-1.983 0.141 0.155 0.281 0.323 0.436 0.478 0.774 0.759 1.238 1.449 1.35 1.983zM13.249 7.95c-0.253-0.295-0.577-0.605-0.97-0.928-0.605-0.492-0.956-0.985-1.139-1.435h1.013c0.113 0.745 0.436 1.547 1.097 2.363zM12.096 4.462h-1.139c0.042-0.534 0.267-0.956 0.408-1.167l0.999-0.113c-0.113 0.352-0.225 0.788-0.267 1.28zM8.791 3.562l1.266-0.141c-0.113 0.295-0.197 0.647-0.225 1.027h-1.407c0.042-0.38 0.239-0.703 0.366-0.886zM9.705 6.375c-0.394-0.253-0.689-0.52-0.9-0.802h1.139c0.197 0.731 0.675 1.533 1.617 2.307 1.336 1.097 1.378 1.674 1.322 1.871-0.084 0.338-0.591 0.647-1.35 0.83-0.281-0.253-0.591-0.464-0.914-0.661 0.478-0.267 0.774-0.619 0.858-1.041 0.169-0.774-0.408-1.589-1.772-2.504zM7.806 10.313c2.461 0 4.473 1.983 4.557 4.459h-0.295c-0.084-2.25-1.997-4.051-4.318-4.051-2.335 0-4.234 1.8-4.318 4.051h-0.169c0.070-2.475 2.082-4.459 4.543-4.459zM10.225 14.772c-0.084-1.28-1.181-2.293-2.504-2.293s-2.419 1.013-2.504 2.293h-0.675c0.084-1.632 1.491-2.926 3.193-2.926s3.108 1.294 3.193 2.926h-0.703zM9.1 14.772h-2.743c0.084-0.661 0.675-1.167 1.378-1.167 0.689 0 1.28 0.506 1.364 1.167zM20.043 28.696c0.084 0 0.141 0.056 0.141 0.141v1.589c0 0.084-0.056 0.141-0.141 0.141h-11.351c-0.084 0-0.141-0.056-0.141-0.141v-1.589c0-0.084 0.056-0.141 0.141-0.141h4.824c0.408 0.028 0.83 0.042 1.252 0.042s0.844-0.014 1.252-0.042h4.023zM15.978 27.571h-2.419c-6.92-0.534-12.377-5.556-12.434-11.674h27.287c-0.056 6.118-5.514 11.14-12.434 11.674z"></path>
</symbol>
<symbol id="soup" viewBox="0 0 38 32">
<path d="M35.883 15.303h-33.717c-0.9 0-1.633 0.667-1.633 1.5v1.667c0 0.833 0.733 1.5 1.633 1.5h0.867v5.583c0 3.2 2 5.8 4.45 5.8h22.767c2.45 0 4.45-2.6 4.45-5.8v-5.583h1.2c0.9 0 1.633-0.667 1.633-1.5v-1.667c0-0.833-0.733-1.5-1.65-1.5zM33.367 17.853v0.783h-29v-0.783c0-0.417 0.050-0.817 0.117-1.217h28.717c0.1 0.4 0.167 0.717 0.167 1.217zM2.167 18.636c-0.183 0-0.3-0.1-0.3-0.167v-1.667c0-0.067 0.117-0.167 0.3-0.167h0.967c-0.067 0.4-0.1 0.8-0.1 1.217v0.783h-0.867zM33.367 25.553c0 2.467-1.4 4.467-3.117 4.467h-22.783c-1.717 0-3.117-2-3.117-4.467v-5.583h29v5.583h0.017zM36.2 18.469c0 0.067-0.117 0.167-0.3 0.167h-1.2v-0.783c0-0.483-0.050-0.867-0.133-1.217h1.317c0.183 0 0.3 0.1 0.3 0.167v1.667h0.017z"></path>
<path d="M8.933 8.236c0.5 1.6 2.35 2.433 3.267 2.65 0.050 0.017 0.1 0.017 0.15 0.017 0.3 0 0.567-0.2 0.65-0.517 0.083-0.35-0.133-0.717-0.5-0.8-0.783-0.183-2.033-0.85-2.3-1.75-0.183-0.567 0.067-1.217 0.7-1.933 0.883-0.983 1.25-1.983 1.117-3-0.217-1.6-1.683-2.567-1.733-2.6-0.317-0.2-0.717-0.117-0.917 0.2-0.2 0.3-0.117 0.717 0.2 0.917 0.017 0 1.017 0.683 1.15 1.683 0.083 0.6-0.183 1.25-0.783 1.917-1.233 1.367-1.217 2.5-1 3.217z"></path>
<path d="M15.883 8.236c0.5 1.6 2.35 2.433 3.267 2.65 0.050 0.017 0.1 0.017 0.15 0.017 0.3 0 0.567-0.2 0.65-0.517 0.083-0.35-0.133-0.717-0.5-0.8-0.783-0.183-2.033-0.85-2.3-1.75-0.183-0.567 0.067-1.217 0.7-1.933 0.883-0.983 1.25-1.983 1.117-3-0.217-1.6-1.683-2.567-1.75-2.6-0.317-0.2-0.717-0.117-0.917 0.2-0.2 0.3-0.117 0.717 0.2 0.917 0.017 0 1.017 0.683 1.15 1.683 0.083 0.6-0.183 1.25-0.783 1.917-1.217 1.367-1.217 2.5-0.983 3.217z"></path>
<path d="M22.6 8.236c0.5 1.6 2.35 2.433 3.267 2.65 0.050 0.017 0.1 0.017 0.15 0.017 0.3 0 0.567-0.2 0.65-0.517 0.083-0.35-0.133-0.717-0.5-0.8-0.783-0.183-2.033-0.85-2.3-1.75-0.183-0.567 0.067-1.217 0.7-1.933 0.883-0.983 1.25-1.983 1.117-3-0.217-1.617-1.683-2.583-1.75-2.617-0.317-0.2-0.717-0.117-0.917 0.2-0.2 0.3-0.117 0.717 0.2 0.917 0.017 0 1.017 0.683 1.15 1.683 0.083 0.6-0.183 1.25-0.783 1.917-1.217 1.383-1.2 2.517-0.983 3.233z"></path>
</symbol>
</defs>
</svg>
