<svg aria-hidden="true" style="position: absolute; width: 0; height: 0; overflow: hidden;" version="1.1" xmlns="http://www.w3.org/2000/svg" xmlns:xlink="http://www.w3.org/1999/xlink">
<defs>
<symbol id="ukraine" viewBox="0 0 32 32">
<path d="M20.411 22.595v-0.032c0.123 0.007 0.245 0.012 0.275-0.151 0.053-0.294 0.009-0.349-0.284-0.349-0.021 0-0.042-0-0.062 0-0.191 0.001-0.227 0.061-0.149 0.252-0.010 0.087-0.055 0.071-0.106 0.035-0.089-0.061-0.204-0.084-0.284-0.143-0.209-0.154-0.35-0.059-0.487 0.092-0.067 0.074-0.134 0.077-0.233 0.060-0.196-0.033-0.396-0.054-0.595-0.073-0.28-0.027-0.546-0.058-0.756-0.278-0.129-0.135-0.311-0.134-0.487-0.133s-0.183-0.008-0.112-0.171c0.050-0.115 0.035-0.179-0.102-0.206-0.229-0.044-0.455-0.106-0.684-0.152-0.087-0.017-0.076-0.050-0.039-0.103 0.108-0.159 0.428-0.262 0.616-0.213 0.275 0.072 0.55 0.154 0.846 0.164-0.101-0.226-0.211-0.421-0.468-0.479-0.254-0.057-0.507-0.093-0.715 0.103-0.276 0.261-0.597 0.225-0.926 0.169-0.236-0.040-0.442-0.171-0.688-0.218 0.032 0.077 0.064 0.153 0.096 0.23-0.2 0.046-0.080 0.201-0.089 0.3-0.012 0.125 0.111 0.056 0.174 0.076-0.022 0.141-0.031 0.285-0.116 0.408-0.254-0.003-0.254-0.003-0.252 0.221-0.061 0.078-0.119 0.084-0.214 0.035-0.205-0.107-0.369-0.284-0.596-0.352-0.013-0.031-0.025-0.031-0.038 0-0.057 0.109-0.030 0.192 0.050 0.288 0.148 0.179 0.345 0.325 0.403 0.573 0.016 0.067 0.011 0.115-0.011 0.175-0.101 0.274-0.269 0.467-0.564 0.551-0.149 0.042-0.294 0.123-0.404 0.243-0.069 0.076-0.156 0.035-0.234 0.046-0.066 0.009-0.182-0.025-0.188 0.020-0.013 0.097-0.082 0.193-0.028 0.298 0.094 0.182 0.102 0.393 0.192 0.578 0.031 0.063 0.008 0.123-0.067 0.162-0.205 0.107-0.236 0.108-0.404-0.053-0.3-0.289-0.641-0.387-1.066-0.335-0.225 0.027-0.36 0.111-0.498 0.258-0.126 0.136-0.286 0.177-0.455 0.075-0.367-0.221-0.689-0.481-0.876-0.882 0.196-0.117 0.411-0.137 0.632-0.121 0.072 0.005 0.135-0.002 0.157-0.087 0.082-0.313 0.305-0.534 0.49-0.785 0.122-0.166 0.257-0.317 0.407-0.447 0.143-0.123 0.168-0.268 0.114-0.406-0.108-0.276-0.005-0.516 0.066-0.769 0.021-0.077 0.062-0.073 0.111-0.067 0.289 0.035 0.579 0.059 0.868 0.105 0.283 0.045 0.547 0.16 0.829 0.202 0.046 0.007 0.093 0.001 0.141 0.001-0.057-0.131-0.113-0.261-0.206-0.371-0.027-0.031-0.023-0.071-0.012-0.104 0.053-0.164 0.104-0.33 0.17-0.489 0.044-0.106 0.033-0.174-0.061-0.246-0.177-0.136-0.353-0.274-0.513-0.429-0.090-0.087-0.062-0.231-0.097-0.347s-0.042-0.241-0.070-0.36c-0.021-0.087-0.063-0.152-0.175-0.154-0.094-0.002-0.175-0.042-0.201-0.156-0.013-0.057-0.053-0.111-0.091-0.158-0.188-0.236-0.174-0.501-0.122-0.776 0.068-0.357-0.011-0.645-0.327-0.88-0.26-0.194-0.549-0.256-0.842-0.265-0.275-0.008-0.479-0.169-0.722-0.234-0.283-0.075-0.382-0.308-0.486-0.539-0.061-0.136-0.152-0.181-0.308-0.182-0.53-0.004-1.058 0.050-1.588 0.042-0.198-0.003-0.32 0.17-0.441 0.302-0.127 0.138-0.206 0.326-0.347 0.444-0.173 0.145-0.381 0.261-0.606 0.307-0.369 0.077-0.746 0.116-1.114 0.197-0.196 0.043-0.389 0.125-0.567 0.219-0.234 0.122-0.447 0.149-0.654-0.038-0.27-0.243-0.619-0.245-0.945-0.308-0.31-0.059-0.628-0.106-0.913-0.234-0.182-0.082-0.354-0.143-0.55-0.146-0.083-0.001-0.106-0.070-0.138-0.128-0.176-0.316-0.423-0.35-0.681-0.094-0.007 0.007-0.015 0.015-0.022 0.022-0.171 0.168-0.171 0.168-0.335 0.004-0.275-0.275-0.565-0.534-0.818-0.831-0.193-0.226-0.21-0.483-0.179-0.75 0.009-0.078 0.097-0.154 0.161-0.218 0.189-0.187 0.31-0.418 0.43-0.649 0.073-0.14 0.132-0.287 0.334-0.278 0.106 0.005 0.133-0.060 0.132-0.167-0.007-0.5-0.002-1-0.004-1.5-0-0.070 0.010-0.126 0.065-0.18 0.249-0.246 0.459-0.523 0.67-0.802 0.162-0.215 0.407-0.368 0.61-0.554 0.317-0.289 0.69-0.489 1.065-0.688 0.042-0.022 0.082-0.049 0.090-0.1 0.023-0.142 0.072-0.274 0.123-0.408 0.038-0.1 0.027-0.201-0.011-0.31-0.151-0.431-0.274-0.872-0.411-1.308-0.057-0.18-0.012-0.393-0.012-0.591-0.001-0.348 0.123-0.462 0.476-0.474 0.314-0.011 0.602-0.105 0.822-0.345 0.061-0.067 0.125-0.097 0.216-0.091 0.441 0.027 0.88-0.027 1.314-0.073 0.337-0.036 0.635 0.059 0.949 0.119 0.425 0.082 0.852 0.154 1.277 0.239 0.244 0.049 0.503 0.075 0.721 0.182 0.215 0.106 0.424 0.243 0.618 0.391 0.217 0.165 0.465 0.173 0.705 0.136 0.618-0.094 1.213-0.056 1.782 0.217 0.068 0.033 0.135 0.048 0.209 0.041 0.311-0.031 0.6 0.051 0.879 0.175 0.074 0.033 0.145 0.044 0.224 0.045 0.337 0.001 0.672 0.041 1.010 0.035 0.169-0.003 0.236 0.175 0.352 0.267 0.102 0.081 0.197 0.173 0.298 0.257 0.048 0.039 0.078 0.010 0.107-0.006 0.208-0.116 0.24-0.218 0.17-0.461-0.097-0.338-0.096-0.683-0.020-1.023 0.054-0.244 0.176-0.42 0.451-0.498 0.321-0.091 0.623-0.269 0.967-0.254 0.28 0.012 0.559 0.061 0.838 0.1 0.35 0.049 0.541 0.045 0.703-0.275 0.016-0.032 0.044-0.057 0.059-0.089 0.087-0.184 0.251-0.259 0.435-0.3 0.198-0.045 0.396-0.101 0.597-0.121 0.214-0.021 0.438-0.034 0.619 0.128 0.047 0.042 0.086 0.011 0.127-0.010 0.308-0.158 0.428-0.137 0.639 0.121 0.214 0.262 0.466 0.497 0.629 0.794 0.12 0.22 0.296 0.299 0.518 0.332 0.060 0.009 0.14 0.001 0.149 0.075 0.011 0.087 0.037 0.187-0.059 0.257-0.119 0.088-0.197 0.221-0.358 0.266-0.164 0.045-0.213 0.187-0.083 0.306 0.218 0.2 0.172 0.4 0.087 0.626-0.039 0.104-0.049 0.164 0.115 0.202 0.347 0.079 0.688-0.003 1.030 0.018 0.080 0.005 0.147 0.018 0.214 0.064 0.212 0.142 0.428 0.277 0.641 0.416 0.116 0.076 0.226 0.157 0.265 0.305 0.010 0.037 0.025 0.079 0.083 0.097 0.342 0.102 0.462 0.349 0.447 0.691-0.011 0.251-0.004 0.257 0.229 0.327 0.414 0.124 0.832 0.234 1.244 0.361 0.071 0.022 0.117 0.009 0.171-0.017 0.312-0.152 0.626-0.302 0.936-0.458 0.094-0.047 0.17-0.043 0.228 0.045 0.25 0.375 0.637 0.561 1.025 0.745 0.086 0.041 0.142 0.109 0.16 0.192 0.027 0.124 0.111 0.132 0.196 0.105 0.154-0.049 0.289-0.024 0.428 0.048 0.272 0.141 0.56 0.233 0.87 0.206 0.453-0.040 0.872 0.088 1.29 0.234 0.226 0.079 0.46 0.128 0.695 0.171 0.058 0.010 0.106 0.033 0.158 0.055 0.119 0.049 0.166 0.111 0.122 0.255-0.074 0.242-0.042 0.303 0.206 0.438 0.128 0.070 0.142 0.11 0.035 0.22-0.127 0.131-0.248 0.272-0.34 0.435-0.070 0.124-0.073 0.24-0.052 0.386 0.052 0.364 0.191 0.717 0.149 1.094-0.015 0.134 0.037 0.254 0.104 0.376 0.114 0.204 0.224 0.413 0.208 0.663-0.009 0.149-0.097 0.266-0.138 0.403-0.040 0.133-0.137 0.247-0.192 0.381-0.028 0.069-0.119 0.095-0.201 0.111-0.348 0.069-0.699 0.103-1.052 0.122-0.082 0.004-0.119 0.058-0.16 0.107-0.144 0.174-0.275 0.357-0.429 0.523-0.11 0.119-0.233 0.186-0.39 0.215-0.315 0.058-0.319 0.069-0.347 0.386-0.023 0.263-0.022 0.527-0.036 0.79-0.015 0.298-0.003 0.299-0.3 0.332-0.246 0.028-0.495-0.011-0.738 0.051-0.067 0.017-0.128 0.034-0.177 0.083-0.309 0.313-0.684 0.534-1.063 0.748-0.051 0.029-0.106 0.056-0.13 0.105-0.086 0.172-0.229 0.245-0.411 0.253-0.382 0.016-0.733 0.173-1.105 0.232-0.116 0.018-0.23 0.050-0.346 0.061-0.297 0.029-0.501 0.238-0.741 0.375-0.167 0.096-0.316 0.225-0.474 0.337-0.076 0.054-0.162 0.090-0.256 0.089-0.238-0.002-0.408 0.094-0.494 0.323-0.051 0.135-0.156 0.207-0.275 0.285-0.319 0.21-0.665 0.224-1.024 0.206-0.093-0.005-0.187-0.001-0.298-0.001 0.107 0.251 0.199 0.498 0.317 0.733 0.065 0.13 0.215 0.187 0.329 0.273 0.235 0.178 0.494 0.321 0.76 0.45 0.054 0.026 0.121 0.050 0.176 0.041 0.259-0.040 0.399 0.126 0.529 0.3 0.184 0.245 0.336 0.302 0.635 0.238 0.266-0.057 0.508-0.165 0.73-0.32 0.077-0.054 0.146-0.081 0.231 0 0.202 0.193 0.369 0.022 0.53-0.075 0.145-0.087 0.293-0.027 0.438-0.042 0.042-0.004 0.028 0.045 0.039 0.070 0.097 0.22-0.035 0.398-0.116 0.579-0.048 0.108-0.046 0.187 0.017 0.284 0.026 0.041 0.083 0.061 0.077 0.137-0.019 0.238-0.011 0.238-0.252 0.238-0.224-0-0.448-0.004-0.672 0.001-0.105 0.002-0.186-0.026-0.264-0.099-0.31-0.288-0.573-0.215-0.746 0.165-0.123 0.269-0.281 0.422-0.544 0.535-0.277 0.119-0.581 0.156-0.845 0.303-0.243 0.135-0.51 0.226-0.711 0.439-0.123 0.13-0.258 0.254-0.397 0.369-0.211 0.175-0.445 0.221-0.711 0.104-0.255-0.113-0.509-0.235-0.786-0.289-0.094-0.018-0.134-0.083-0.142-0.168-0.008-0.080-0.025-0.169 0.080-0.207 0.073-0.026 0.082-0.084 0.074-0.149-0.035-0.255 0.126-0.437 0.237-0.638 0.105-0.191 0.106-0.192-0.057-0.307-0.103-0.073-0.205-0.121-0.338-0.127-0.193-0.007-0.349-0.117-0.514-0.213-0.283-0.165-0.562-0.357-0.91-0.353-0.175 0.002-0.237-0.11-0.292-0.245-0.094-0.232-0.1-0.237 0.119-0.369 0.44-0.266 0.872-0.548 1.354-0.739 0.018-0.007 0.039-0.006 0.058-0.008 0.084 0.076 0.243 0.088 0.272 0.010 0.031-0.084 0.084-0.077 0.145-0.078 0.081-0.002 0.19 0.026 0.219-0.072 0.032-0.108 0.068-0.233-0.037-0.333z"></path>
<path d="M20.191 22.314c-0.078-0.19-0.042-0.25 0.149-0.252 0.021-0 0.042-0 0.062-0 0.293-0 0.338 0.055 0.284 0.349-0.030 0.164-0.151 0.159-0.275 0.151-0.019-0.072 0.071-0.114 0.052-0.187 0.004-0.010 0.006-0.020 0.008-0.030l-0.001 0.001c0.161-0.074 0.032-0.106-0.021-0.148-0.074 0.001-0.113 0.036-0.109 0.113-0.041-0.002-0.079 0.038-0.121 0.006l-0.014-0.004-0.014 0.001zM20.411 22.595c0.105 0.1 0.069 0.225 0.037 0.333-0.029 0.098-0.137 0.070-0.219 0.072-0.062 0.001-0.114-0.006-0.145 0.078-0.029 0.078-0.188 0.065-0.272-0.010 0.073-0.053 0.147-0.105 0.22-0.158 0.094-0.062 0.188-0.125 0.282-0.187 0.058-0.023 0.061-0.088 0.097-0.128zM15.151 21.375c-0.063-0.020-0.186 0.049-0.174-0.076 0.010-0.099-0.11-0.254 0.089-0.3 0.011 0.011 0.022 0.022 0.033 0.032 0.086 0.091 0.069 0.203 0.062 0.313-0.003 0.010-0.007 0.021-0.010 0.031z"></path>
<path d="M14.783 22.004c-0.002-0.224-0.002-0.224 0.252-0.221-0.032 0.133-0.142 0.178-0.252 0.221z"></path>
</symbol>
<symbol id="czech-republic" viewBox="0 0 60 32">
<path d="M60.036 17.844c-0.034-0.024-0.067-0.061-0.073-0.067-0.021-0.037-0.070-0.189-0.116-0.522-0.049-0.363-0.076-0.488-0.168-0.678-0.049-0.101-0.125-0.253-0.327-0.253-0.076 0-0.153 0.024-0.253 0.055-0.107 0.037-0.235 0.037-0.278 0.018-0.003-0.009-0.009-0.024-0.012-0.046-0.052-0.198-0.107-0.232-0.144-0.256-0.034-0.021-0.067-0.040-0.339-0.058-0.247-0.015-0.25-0.018-0.324-0.101-0.214-0.235-0.412-0.62-0.522-1.004-0.031-0.107-0.064-0.229-0.058-0.266 0.003-0.021 0.070-0.085 0.116-0.128 0.095-0.089 0.235-0.226 0.137-0.372-0.021-0.031-0.052-0.073-0.253-0.147-0.070-0.024-0.085-0.040-0.085-0.040-0.003-0.009-0.015-0.052 0.027-0.223 0.040-0.165 0.067-0.281-0.082-0.385-0.14-0.095-0.305-0.076-0.382 0.027-0.043 0.061-0.049 0.137-0.015 0.208 0.012 0.024 0.009 0.034 0.012 0.034 0 0-0.009 0.015-0.046 0.031-0.031 0.015-0.046 0.015-0.055 0.015-0.067 0-0.226-0.104-0.354-0.195-0.009-0.006-0.217-0.153-0.287-0.186-0.137-0.070-0.385-0.128-0.598-0.143l-0.406-0.027v0.232c-0.101 0.027-0.162 0.079-0.189 0.162-0.061-0.034-0.171-0.134-0.208-0.186 0-0.031-0.003-0.073-0.003-0.11l-0.009-0.278h-0.424c-0.122 0-0.171-0.009-0.192-0.015-0.003-0.009-0.006-0.027-0.006-0.061 0-0.223-0.104-0.339-0.305-0.339-0.25 0-0.311 0.174-0.33 0.253-0.003 0-0.003 0-0.006 0v0c-0.089 0-0.171-0.034-0.25-0.098-0.058-0.046-0.082-0.073-0.122-0.284-0.034-0.183-0.058-0.256-0.174-0.369-0.202-0.195-0.488-0.281-0.663-0.198-0.098 0.046-0.26 0.165-0.26 0.318 0 0.11 0.076 0.223 0.247 0.223 0.027 0 0.067-0.003 0.125-0.009l0.049-0.006 0.006 0.006c0.058 0.058 0.061 0.153 0.043 0.189-0.015-0.006-0.046-0.018-0.098-0.058-0.055-0.040-0.125-0.079-0.223-0.079-0.037 0-0.073 0.006-0.113 0.015-0.162 0.034-0.382 0.147-0.473 0.284-0.153 0.229-0.153 0.229-0.235 0.266-0.070 0.034-0.168 0.055-0.253 0.055-0.052 0-0.079-0.009-0.092-0.012-0.052-0.018-0.177-0.098-0.247-0.18-0.006-0.006-0.012-0.015-0.012-0.034-0.006-0.263-0.211-0.287-0.424-0.314-0.058-0.006-0.067-0.009-0.085-0.107-0.046-0.247-0.434-0.888-0.626-1.041l-0.299-0.235-0.116 0.324c-0.006-0.003-0.015-0.006-0.024-0.009-0.076-0.037-0.479-0.333-0.546-0.4-0.031-0.043-0.037-0.085-0.037-0.098 0.018-0.064 0.037-0.125 0.458-0.201 0.314-0.058 0.522-0.095 0.562-0.366 0-0.009 0.003-0.015 0.003-0.018 0.012-0.003 0.034-0.006 0.070-0.006 0.226 0 0.29-0.058 0.314-0.082 0.113-0.107 0.092-0.357 0.058-0.443-0.012-0.031-0.046-0.107-0.263-0.198-0.040-0.015-0.073-0.037-0.095-0.049 0-0.021 0.006-0.082 0.082-0.205 0.122-0.195 0.122-0.259 0.122-0.284 0-0.165-0.177-0.324-0.345-0.4-0.116-0.052-0.189-0.073-0.253-0.073-0.076 0-0.147 0.031-0.189 0.085-0.027 0.034-0.064 0.104-0.034 0.205 0.031 0.098 0.027 0.101 0.006 0.131-0.116 0.159-0.376 0.318-0.464 0.339-0.006-0.003-0.015-0.009-0.024-0.015-0.128-0.104-0.205-0.107-0.412-0.11-0.208 0-0.592 0.043-0.751 0.119-0.055 0.027-0.159 0.092-0.226 0.137s-0.137 0.085-0.156 0.095c-0.003-0.33-0.284-0.33-0.452-0.33h-0.186c0.021-0.281 0.012-0.415-0.098-0.519l-0.147-0.137-0.318 0.131c-0.098 0.040-0.168 0.058-0.223 0.058-0.076 0-0.171-0.037-0.372-0.217-0.235-0.211-0.232-0.238-0.229-0.259 0.018-0.116 0.003-0.189-0.049-0.244l-0.064-0.067h-0.092c-0.024 0-0.052 0-0.217 0.052-0.061 0.018-0.11 0.031-0.144 0.031-0.024 0-0.055 0-0.119-0.107-0.031-0.046-0.11-0.159-0.217-0.189-0.034-0.009-0.073-0.015-0.14-0.015-0.052 0-0.11 0.003-0.168 0.006-0.034 0.003-0.061 0.003-0.089 0.003-0.092 0-0.147-0.015-0.302-0.11-0.119-0.073-0.195-0.122-0.296-0.122-0.113 0-0.183 0.064-0.223 0.104-0.031-0.012-0.101-0.049-0.247-0.162-0.174-0.131-0.269-0.205-0.394-0.205-0.076 0-0.134 0.031-0.171 0.052-0.122 0.073-0.253 0.281-0.296 0.397-0.012 0.037-0.052 0.144 0.009 0.253 0.061 0.104 0.177 0.147 0.293 0.177 0.058 0.015 0.113 0.034 0.137 0.043 0.018 0.021 0.073 0.104 0.162 0.418 0.095 0.336 0.144 0.464 0.253 0.556 0.064 0.055 0.211 0.098 0.321 0.125 0.092 0.024 0.153 0.049 0.171 0.058 0.055 0.058 0.14 0.318 0.113 0.708-0.003 0.043-0.006 0.079-0.009 0.11-0.043-0.089-0.104-0.217-0.253-0.217-0.073 0-0.171 0.034-0.226 0.183-0.024 0.003-0.076 0.003-0.137 0-0.208-0.009-0.299 0.003-0.366 0.055-0.055 0.040-0.101 0.122-0.137 0.241-0.009 0.024-0.015 0.040-0.021 0.052-0.009 0-0.015 0.003-0.021 0.003-0.003-0.003-0.003-0.003-0.006-0.006-0.076-0.082-0.162-0.101-0.22-0.101-0.119 0-0.205 0.070-0.26 0.125-0.128 0.125-0.198 0.296-0.26 0.513-0.052 0.183-0.089 0.205-0.192 0.238-0.168 0.058-0.229 0.098-0.305 0.256-0.147 0.308-0.153 0.308-0.281 0.308-0.085 0-0.095 0-0.321-0.107-0.275-0.128-0.415-0.223-0.492-0.318-0.037-0.046-0.073-0.082-0.119-0.113 0.015-0.067 0.003-0.18-0.040-0.424-0.040-0.238-0.073-0.385-0.101-0.44-0.134-0.281-0.553-0.794-0.931-1.148l-0.299-0.275-0.311 0.006c-0.027 0-0.046 0-0.055 0-0.034-0.040-0.064-0.128-0.092-0.266-0.043-0.211-0.092-0.446-0.394-0.488-0.049-0.006-0.095-0.009-0.134-0.009-0.189 0-0.333 0.073-0.424 0.217-0.009-0.018-0.015-0.037-0.024-0.055-0.131-0.305-0.211-0.492-0.406-0.492-0.031 0-0.058 0.006-0.082 0.015-0.006 0.003-0.021 0.006-0.040 0.009-0.031-0.052-0.058-0.159-0.049-0.256 0-0.018 0.003-0.027 0.006-0.034 0.003-0.003 0.009-0.006 0.012-0.009 0.085-0.021 0.156-0.085 0.183-0.177 0.021-0.040 0.128-0.15 0.223-0.205 0.027-0.018 0.058-0.027 0.082-0.034 0.134 0.079 0.357 0.003 0.357-0.235 0-0.034 0.012-0.055 0.012-0.058 0.006-0.003 0.009-0.003 0.021-0.003 0.027 0 0.079 0.006 0.113 0.012 0.165 0.024 0.256 0.024 0.357-0.024s0.195-0.137 0.275-0.253c0.070-0.101 0.076-0.189 0.021-0.266 0.043-0.018 0.076-0.046 0.101-0.085 0.067-0.107 0.006-0.208-0.027-0.26 0.009-0.006 0.024-0.009 0.046-0.015 0.177-0.046 0.208-0.073 0.229-0.092l0.067-0.058v-0.082c0-0.177-0.687-0.861-0.693-0.867-0.165-0.14-0.4-0.266-0.595-0.321-0.101-0.027-0.223-0.043-0.351-0.043-0.26 0-0.427 0.052-0.498 0.159-0.018 0.024-0.049 0.070-0.049 0.266 0 0.055-0.006 0.104-0.009 0.128-0.018 0.018-0.073 0.055-0.128 0.058-0.003 0-0.006 0-0.012 0 0-0.003-0.003-0.009-0.006-0.015-0.064-0.195-0.256-0.278-0.47-0.351-0.113-0.040-0.195-0.055-0.272-0.055-0.113 0-0.208 0.040-0.287 0.116-0.147 0.147-0.183 0.253-0.22 0.458-0.027 0.165-0.049 0.177-0.095 0.211-0.018 0.012-0.061 0.027-0.119 0.027-0.070 0-0.131-0.018-0.162-0.040 0.012-0.006 0.027-0.015 0.046-0.024 0.278-0.131 0.238-0.293 0.183-0.537-0.095-0.415-0.327-0.504-0.507-0.504-0.027 0-0.058 0.003-0.085 0.006-0.085 0.012-0.266 0.073-0.363 0.11-0.168 0.064-0.296 0.095-0.382 0.095-0.027 0-0.043-0.003-0.049-0.006-0.067-0.021-0.134-0.043-0.183-0.391-0.046-0.321-0.073-0.452-0.205-0.574-0.031-0.027-0.119-0.113-0.269-0.113-0.104 0-0.208 0.040-0.336 0.104-0.314 0.156-0.314 0.156-0.449 0.156 0 0 0 0 0 0-0.137 0-0.171 0-0.47-0.208-0.113-0.079-0.281-0.183-0.372-0.223-0.085-0.037-0.153-0.064-0.272-0.064-0.040 0-0.089 0.003-0.156 0.009-0.070 0.006-0.143 0.012-0.208 0.027-0.027-0.027-0.064-0.049-0.116-0.067-0.021-0.009-0.107-0.052-0.205-0.11-0.214-0.128-0.375-0.208-0.534-0.208-0.046 0-0.092 0.006-0.137 0.021-0.079 0.024-0.162 0.104-0.244 0.238-0.070 0.113-0.107 0.147-0.119 0.156 0 0-0.003 0-0.006 0-0.021-0.073-0.024-0.272-0.027-0.354-0.009-0.345-0.031-0.427-0.073-0.492-0.070-0.101-0.192-0.137-0.293-0.156-0.113-0.021-0.208-0.082-0.302-0.192-0.147-0.174-0.226-0.375-0.226-0.577 0-0.085 0.018-0.107 0.064-0.143 0.165-0.131 0.186-0.333 0.055-0.516-0.052-0.073-0.122-0.15-0.275-0.15-0.015 0-0.031 0-0.049 0-0.009-0.217-0.137-0.25-0.214-0.25-0.046 0-0.064 0-0.281 0.107-0.061 0.031-0.116 0.049-0.159 0.058 0.003-0.024 0.009-0.052 0.015-0.070 0.024-0.119 0.046-0.214-0.027-0.296l-0.067-0.070h-0.122l-0.021 0.003c-0.223 0.049-0.263 0.238-0.263 0.385-0.006 0-0.015 0-0.024-0.003-0.034-0.003-0.058-0.006-0.076-0.009 0-0.006 0.003-0.009 0.003-0.015 0.018-0.061 0.003-0.128-0.037-0.18-0.137-0.174-0.638-0.192-0.644-0.192-0.031 0-0.058 0-0.082 0-0.153 0-0.217 0.024-0.324 0.092-0.174 0.113-0.284 0.266-0.29 0.406-0.003 0.089 0.034 0.171 0.104 0.226 0.049 0.037 0.101 0.058 0.159 0.058 0.067 0 0.116-0.027 0.153-0.055 0.006 0.009 0.012 0.018 0.018 0.031 0.018 0.031 0.040 0.070-0.095 0.287-0.021 0.037-0.134 0.223-0.153 0.317-0.015 0.085 0.009 0.186 0.095 0.382 0.046 0.104 0.073 0.195 0.079 0.223-0.003 0.003-0.024 0.018-0.076 0.034-0.128 0.034-0.308 0.018-0.647-0.049-0.22-0.046-0.357-0.058-0.501-0.052-0.324 0.012-0.43 0.101-0.495 0.415-0.046 0.229-0.067 0.263-0.092 0.287-0.027 0.027-0.067 0.055-0.159 0.055-0.052 0-0.116-0.009-0.189-0.024-0.089-0.018-0.131-0.034-0.15-0.043-0.003-0.25-0.275-0.278-0.537-0.302-0.14-0.015-0.232-0.031-0.266-0.040-0.015-0.009-0.034-0.018-0.055-0.024 0.003-0.024 0.003-0.046 0.003-0.058 0.003-0.101 0.003-0.104 0.131-0.336 0.162-0.287 0.22-0.437 0.14-0.559-0.043-0.064-0.119-0.104-0.201-0.104-0.067 0-0.137 0.024-0.235 0.076-0.189 0.104-0.278 0.14-0.317 0.15-0.015-0.031-0.009-0.073 0.14-0.296 0.153-0.226 0.244-0.406 0.070-0.65-0.034-0.049-0.113-0.143-0.186-0.186-0.034-0.021-0.092-0.055-0.168-0.055-0.046 0-0.082 0.012-0.113 0.024-0.052-0.11-0.18-0.137-0.259-0.15-0.22-0.043-0.247-0.055-0.296-0.092-0.143-0.107-0.211-0.107-0.241-0.107-0.043 0-0.101 0-0.281 0.14-0.012 0.009-0.049 0.037-0.067 0.049-0.006 0-0.012 0-0.021 0 0 0-0.003 0-0.003 0-0.012-0.015-0.024-0.034-0.034-0.046l-0.156-0.217-0.296 0.024c-0.031 0.003-0.058 0.003-0.082 0.003-0.061 0-0.067 0-0.125-0.064-0.055-0.061-0.156-0.171-0.336-0.128-0.143 0.034-0.201 0.119-0.223 0.165-0.027 0.061-0.043 0.159 0.037 0.284 0 0.003 0.003 0.003 0.003 0.006-0.003 0.015-0.018 0.055-0.085 0.159-0.104 0.162-0.162 0.272-0.122 0.388 0.015 0.046 0.055 0.11 0.15 0.15 0.098 0.043 0.192 0.046 0.275 0.027-0.012 0.018-0.018 0.037-0.024 0.055-0.021 0.082 0.006 0.192 0.153 0.263 0.089 0.043 0.299 0.079 0.324 0.082 0.284 0.049 0.357 0.122 0.375 0.15 0.018 0.031 0.018 0.076-0.006 0.14-0.037 0.107-0.052 0.15-0.663 0.177-0.165 0.006-0.501 0.027-0.598 0.046l-0.253 0.055-0.018 0.29c0 0.012-0.003 0.046-0.006 0.067-0.079 0.058-0.406 0.208-0.946 0.406-0.174 0.064-0.522 0.198-0.608 0.253-0.003 0.003-0.009 0.006-0.012 0.006 0 0-0.003-0.003-0.003-0.003-0.027-0.018-0.085-0.064-0.128-0.095-0.049-0.037-0.119-0.089-0.214-0.089-0.061 0-0.107 0.018-0.143 0.037-0.082 0.043-0.201 0.168-0.235 0.208-0.11 0.119-0.156 0.131-0.156 0.125-0.119-0.079-0.25-0.070-0.336 0.009-0.037 0.034-0.070 0.067-0.122 0.391-0.018 0.116-0.034 0.198-0.049 0.25-0.116-0.003-0.205 0.055-0.253 0.177-0.024 0.003-0.076 0-0.137-0.003-0.098-0.006-0.253-0.031-0.333-0.049-0.104-0.027-0.259-0.052-0.354-0.061l-0.29-0.024-0.107 0.214c0 0.003-0.003 0.003-0.003 0.006-0.018-0.009-0.049-0.027-0.089-0.058-0.076-0.055-0.156-0.116-0.281-0.116-0.11 0-0.214 0.043-0.446 0.137-0.217 0.089-0.25 0.095-0.418 0.107-0.272 0.018-0.308 0.040-0.339 0.058-0.052 0.031-0.089 0.079-0.101 0.137-0.018 0.092 0.031 0.165 0.079 0.226 0.067 0.082 0.070 0.11 0.070 0.11v0c0 0-0.009 0.027-0.085 0.092l-0.272 0.229 0.168 0.171c-0.009 0.012-0.021 0.034-0.040 0.058-0.15 0.208-0.348 0.321-0.409 0.324-0.079 0-0.259-0.122-0.366-0.311-0.082-0.147-0.156-0.275-0.305-0.275-0.229 0-0.229 0.241-0.229 0.324 0 0.043-0.003 0.067-0.003 0.079-0.018 0.006-0.055 0.015-0.131 0.027l-0.275 0.043 0.031 0.305c0.009 0.089-0.009 0.116-0.009 0.116s-0.021 0.012-0.092 0.012c-0.003 0-0.003 0-0.006 0-0.009-0.125-0.098-0.253-0.327-0.253-0.238 0-0.314 0.247-0.455 0.693-0.15 0.47-0.226 0.51-0.287 0.51-0.049 0-0.116-0.015-0.211-0.049-0.031-0.009-0.049-0.018-0.058-0.024l-0.14-0.25-0.275 0.223c-0.089 0.070-0.119 0.070-0.131 0.070-0.031 0-0.079-0.018-0.143-0.052-0.162-0.085-0.208-0.085-0.238-0.085-0.263 0-0.299 0.311-0.299 0.617 0 0.269-0.021 0.305-0.089 0.397s-0.144 0.147-0.345 0.186c-0.098 0.018-0.153 0.061-0.183 0.104-0.015-0.015-0.034-0.031-0.055-0.046-0.269-0.235-0.446-0.385-0.546-0.458-0.119-0.085-0.278-0.186-0.372-0.186-0.119 0-0.171 0.064-0.192 0.137l-0.009-0.006h-0.082c-0.027 0-0.067 0.006-0.116 0.015-0.15 0.027-0.476 0.177-0.559 0.333-0.027 0.049-0.061 0.162-0.064 0.168-0.021 0.073-0.037 0.104-0.046 0.119-0.012-0.015-0.027-0.034-0.043-0.052-0.058-0.079-0.128-0.165-0.241-0.18l-0.034-0.003c-0.064 0-0.162 0.027-0.202 0.040-0.064 0.018-0.067 0.021-0.107 0.021-0.031 0-0.070-0.003-0.125-0.003-0.369-0.018-0.675 0.031-0.907 0.134-0.205 0.095-0.25 0.198-0.281 0.415-0.012 0.079-0.021 0.134-0.031 0.174-0.024-0.009-0.055-0.015-0.089-0.015-0.137 0-0.195 0.085-0.308 0.256-0.076 0.113-0.107 0.14-0.116 0.143-0.006 0-0.018 0-0.043-0.006-0.034-0.006-0.079-0.012-0.116-0.012l-0.098 0.003-0.058 0.055c-0.085 0.079-0.064 0.174-0.040 0.272 0.009 0.040 0.015 0.067 0.015 0.082-0.098 0.031-0.153 0.073-0.226 0.15-0.214 0.226-0.226 0.305-0.229 0.339-0.003 0.015-0.006 0.052 0.018 0.14-0.006 0-0.012 0-0.018 0h-0.089l-0.061 0.055c-0.073 0.070-0.070 0.104-0.034 0.434 0.031 0.259 0.027 0.321 0.003 0.406-0.092-0.009-0.217-0.095-0.247-0.171-0.024-0.061-0.027-0.070 0.061-0.168 0.043-0.046 0.14-0.156 0.037-0.305-0.043-0.061-0.14-0.116-0.214-0.15-0.079-0.037-0.122-0.061-0.147-0.076 0.076-0.034 0.18-0.095 0.18-0.211 0-0.238-0.269-0.238-0.449-0.238-0.040 0-0.101 0-0.134-0.003-0.003-0.006-0.009-0.009-0.012-0.015-0.006-0.021-0.006-0.119-0.006-0.183 0-0.253 0-0.369-0.208-0.482-0.11-0.061-0.253-0.095-0.391-0.095-0.101 0-0.241 0.018-0.342 0.104-0.198 0.168-0.058 0.33 0.122 0.534 0.067 0.076 0.082 0.128 0.085 0.131-0.003 0.003-0.024 0.034-0.162 0.095-0.171 0.079-0.253 0.128-0.272 0.226-0.012 0.064 0 0.156 0.134 0.247 0.107 0.073 0.165 0.076 0.318 0.076 0.058 0 0.089 0.003 0.104 0.006 0.003 0.012 0.003 0.027 0.003 0.055 0 0.214 0.070 0.281 0.272 0.36 0.089 0.034 0.113 0.058 0.15 0.119 0.046 0.076 0.052 0.095 0.067 0.189 0.009 0.064 0.009 0.064-0.061 0.153-0.116 0.15-0.15 0.247-0.15 0.427 0 0.275 0.174 0.388 0.44 0.528 0.156 0.082 0.208 0.119 0.244 0.156-0.101 0.095-0.085 0.186-0.064 0.232 0.058 0.137 0.208 0.137 0.354 0.137 0.079 0 0.122 0.006 0.143 0.009 0.031 0.143 0.128 0.189 0.214 0.195 0.012 0.009 0.034 0.034 0.070 0.082 0.131 0.183 0.205 0.217 0.44 0.278 0.134 0.034 0.195 0.058 0.223 0.070-0.006 0.040-0.006 0.104 0.049 0.162l0.064 0.067h0.095c0.070 0 0.113-0.027 0.174-0.064 0.015 0.009 0.043 0.024 0.085 0.064 0.064 0.055 0.089 0.082 0.104 0.101-0.012 0.012-0.034 0.037-0.079 0.076-0.137 0.128-0.165 0.189-0.165 0.253 0 0.143 0.134 0.241 0.437 0.321 0.235 0.061 0.235 0.061 0.25 0.165 0.003 0.018 0.006 0.034 0.009 0.049v0c-0.018 0.021-0.082 0.089-0.153 0.165-0.238 0.256-0.348 0.412-0.314 0.601 0 0.003 0 0.006 0 0.009-0.006 0.003-0.012 0.003-0.015 0.003-0.095 0-0.153 0.046-0.18 0.073-0.082 0.085-0.070 0.186-0.043 0.406 0.024 0.195 0.003 0.226-0.189 0.287-0.26 0.079-0.485 0.15-0.485 0.427 0 0.22 0.314 0.629 0.519 0.727 0.095 0.046 0.308 0.076 0.317 0.079 0.263 0.040 0.302 0.046 0.253 0.434-0.015 0.122-0.031 0.284-0.015 0.348 0.043 0.174 0.198 0.186 0.244 0.186 0.021 0 0.049-0.003 0.085-0.006 0.034 0.085 0.067 0.372 0.079 0.498 0.052 0.449 0.153 0.528 0.198 0.562 0.018 0.015 0.067 0.052 0.29 0.101 0.119 0.027 0.14 0.049 0.14 0.049 0.003 0.006 0.018 0.055-0.055 0.259-0.070 0.198-0.082 0.25-0.052 0.424 0.027 0.159 0.101 0.366 0.223 0.473 0.076 0.064 0.232 0.098 0.317 0.11 0.15 0.024 0.26 0.082 0.391 0.208 0.116 0.113 0.147 0.159 0.18 0.375 0.043 0.266 0.092 0.33 0.113 0.354 0.122 0.156 0.452 0.259 0.644 0.293 0.147 0.024 0.217 0.037 0.272 0.037 0.11 0 0.171-0.046 0.202-0.085 0.046-0.055 0.049-0.116 0.043-0.162 0.046-0.003 0.122 0.003 0.202 0.021 0.18 0.037 0.272 0.085 0.495 0.308 0.18 0.183 0.263 0.263 0.412 0.272-0.040 0.25-0.052 0.369 0.037 0.467 0.037 0.043 0.128 0.098 0.269 0.162 0.082 0.040 0.162 0.092 0.18 0.11 0.043 0.046 0.043 0.046 0.119 0.293 0.076 0.244 0.174 0.33 0.449 0.479 0.195 0.104 0.201 0.116 0.217 0.314 0.015 0.208 0.024 0.272 0.147 0.391 0.089 0.089 0.376 0.256 0.531 0.256 0.070 0 0.168-0.037 0.223-0.058 0.046-0.018 0.079-0.027 0.104-0.027 0.021 0 0.061 0.006 0.156 0.067 0.354 0.22 0.644 0.488 0.797 0.739l0.055 0.089-0.012 0.321c-0.012 0.385-0.015 0.455 0.134 0.562l0.018 0.012c0.046 0.034 0.171 0.134 0.275 0.22 0.009 0.006 0.214 0.174 0.299 0.217 0.058 0.031 0.116 0.055 0.183 0.055 0.11 0 0.238-0.055 0.238-0.308 0-0.027 0.003-0.046 0.006-0.058 0.015-0.003 0.052 0 0.089 0.006l0.382 0.067-0.009-0.055c0.012-0.003 0.021-0.006 0.031-0.009s0.015-0.006 0.021-0.006c0.012 0.009 0.040 0.043 0.079 0.128 0.073 0.159 0.089 0.171 0.113 0.195l0.064 0.055h0.082c0.040 0 0.079-0.009 0.119-0.034 0.018 0.052 0.046 0.131 0.067 0.223 0.067 0.263 0.128 0.437 0.253 0.537 0.034 0.027 0.092 0.076 0.195 0.076 0.064 0 0.119-0.018 0.241-0.058 0.089-0.031 0.14-0.037 0.165-0.037 0.018 0 0.070 0 0.119 0.266 0.040 0.22 0.079 0.424 0.363 0.424 0.015 0.043 0.037 0.122 0.049 0.232 0.024 0.241 0.073 0.375 0.162 0.464 0.098 0.098 0.198 0.107 0.342 0.107h0.082c0.082 0 0.134 0.006 0.153 0.012 0.067 0.037 0.369 0.302 0.467 0.424 0.171 0.214 0.308 0.293 0.568 0.324 0.070 0.009 0.116 0.018 0.137 0.027 0.021 0.024 0.058 0.079 0.092 0.14 0.079 0.147 0.143 0.263 0.324 0.275 0.009 0 0.015 0 0.024 0.003 0 0.015-0.006 0.034-0.015 0.049-0.018 0.031-0.046 0.049-0.076 0.058-0.061 0.015-0.244 0.058-0.25 0.223-0.003 0.073 0.031 0.174 0.208 0.229-0.009 0.082-0.003 0.235 0.208 0.281 0.003 0 0.006 0 0.009 0.003 0.018 0.107 0.095 0.18 0.22 0.205 0.073 0.015 0.727 0.064 0.803 0.070 0.412 0.031 0.788 0.070 0.864 0.082 0.153 0.031 0.369 0.122 0.443 0.177 0.082 0.064 0.134 0.089 0.198 0.089h0.006c0.116-0.003 0.177-0.085 0.238-0.165 0.006-0.009 0.012-0.015 0.018-0.021 0.003 0 0.009 0.003 0.018 0.006l0.391 0.11-0.061-0.351c0.003 0 0.009 0.003 0.012 0.006 0.073 0.027 0.131 0.046 0.192 0.046 0.195 0 0.272-0.156 0.321-0.259 0.082-0.177 0.134-0.324 0-0.498-0.003-0.003-0.006-0.006-0.006-0.009 0.003 0 0.006 0 0.012-0.003 0.018 0 0.055 0.031 0.101 0.098 0.046 0.070 0.119 0.171 0.165 0.223 0.116 0.125 0.348 0.241 0.531 0.259l0.211 0.021 0.223-0.217c0.037-0.037 0.067-0.061 0.089-0.079 0.021 0.089 0.070 0.226 0.238 0.226 0.034 0 0.064-0.006 0.089-0.015 0.003 0.012 0.009 0.031 0.012 0.049 0.024 0.11 0.070 0.317 0.324 0.317 0.021 0 0.046-0.003 0.073-0.003 0.119-0.012 0.208-0.052 0.293-0.131l0.128-0.119 0.015-0.589c0.012-0.479 0.012-0.485 0.061-0.598 0.058-0.134 0.098-0.183 0.302-0.293 0.098-0.055 0.229-0.131 0.29-0.18 0.186-0.153 0.156-0.317 0.104-0.501-0.034-0.116-0.024-0.147-0.027-0.147v0c0.031-0.031 0.095-0.037 0.14-0.037 0.107 0 0.311 0.031 0.672 0.183 0.177 0.073 0.305 0.107 0.415 0.107 0.082 0 0.156-0.018 0.22-0.058 0.116-0.070 0.14-0.156 0.143-0.214 0.006-0.143-0.125-0.238-0.189-0.281-0.009-0.006-0.021-0.015-0.034-0.024 0-0.003 0-0.009 0-0.012 0-0.067 0.043-0.159 0.147-0.308 0.131-0.195 0.143-0.308 0.055-0.528-0.052-0.128-0.049-0.165 0.031-0.284l0.006-0.009c0.128-0.198 0.113-0.259 0.015-0.675l-0.006-0.031c-0.040-0.171-0.061-0.324-0.061-0.391 0-0.241 0.092-0.461 0.14-0.504 0.024-0.003 0.085-0.009 0.177-0.009 0.107 0 0.177 0.009 0.198 0.015 0.018 0.003 0.031 0.009 0.040 0.012v0.275l0.421-0.037c0.082-0.006 0.153-0.009 0.211-0.009 0.174 0 0.205 0.031 0.205 0.031s0.031 0.037-0.003 0.226c-0.037 0.198-0.043 0.324 0.040 0.412 0.046 0.049 0.11 0.076 0.18 0.076 0.040 0 0.101 0 0.269-0.131 0.11-0.085 0.15-0.101 0.174-0.101 0.031 0 0.089 0.018 0.125 0.031 0.070 0.021 0.128 0.037 0.183 0.037 0.076 0 0.143-0.027 0.189-0.082 0.024-0.027 0.061-0.070 0.079-0.308 0.003-0.031 0.006-0.055 0.009-0.073 0.079 0.101 0.125 0.143 0.22 0.143 0.046 0 0.058-0.006 0.226-0.070 0.018-0.006 0.073-0.027 0.076-0.031 0.006 0 0.015 0.003 0.024 0.006 0.058 0.015 0.171 0.082 0.476 0.284l0.208 0.137 0.235-0.018c0.143-0.012 0.247 0.009 0.336 0.082 0.076 0.061 0.092 0.092 0.104 0.159 0.034 0.168 0.168 0.278 0.339 0.278v0c0.049 0 0.098-0.009 0.147-0.027 0.040 0.037 0.067 0.052 0.29 0.092 0.205 0.040 0.281 0.073 0.556 0.305 0.296 0.247 0.449 0.339 0.733 0.357 0.037 0.003 0.070 0.003 0.098 0.003 0.247 0 0.354-0.107 0.437-0.269 0.034-0.064 0.034-0.064 0.082-0.085 0.058-0.027 0.073-0.034 0.244-0.034h0.024c0.034 0 0.058 0 0.076 0l-0.040 0.269 0.372-0.021c0.018 0 0.040 0 0.049 0 0.006 0.009 0.012 0.027 0.021 0.055 0.034 0.104 0.079 0.244 0.25 0.244 0.052 0 0.095-0.018 0.122-0.034 0.006 0.009 0.009 0.021 0.015 0.031l0.122 0.284 0.104-0.049c0 0.003 0 0.006 0 0.009 0 0.092 0 0.217 0.812 0.629 0.33 0.168 0.516 0.223 0.953 0.281 0.376 0.052 1.075 0.092 1.423 0.092 0.082 0 0.147-0.003 0.195-0.006 0.098-0.009 0.226-0.018 0.299-0.101 0.046 0.073 0.122 0.153 0.235 0.153 0.076 0 0.119-0.009 0.391-0.263s0.363-0.391 0.485-0.742c0.009-0.021 0.015-0.043 0.021-0.058 0.092 0.061 0.18 0.092 0.272 0.101 0.034 0.003 0.058 0.006 0.079 0.006 0.162 0 0.226-0.101 0.272-0.177 0.003 0 0.006 0 0.009 0 0.024 0.018 0.082 0.073 0.131 0.119 0.223 0.211 0.308 0.232 0.336 0.238 0.024 0.006 0.049 0.009 0.079 0.009 0.061 0 0.147-0.012 0.22-0.031 0.067-0.018 0.122-0.024 0.162-0.024 0.046 0 0.098 0 0.14 0.278 0.031 0.208 0.067 0.44 0.29 0.44 0.034 0 0.082 0 0.238-0.092 0.024-0.015 0.049-0.024 0.067-0.031 0.027 0.006 0.101 0.037 0.263 0.153 0.18 0.128 0.333 0.214 0.498 0.214 0.024 0 0.052-0.003 0.076-0.006 0.085-0.015 0.336-0.101 0.345-0.107 0.147-0.052 0.253-0.076 0.324-0.076 0.046 0 0.067 0.009 0.082 0.021 0.049 0.034 0.073 0.052 0.107 0.241 0.040 0.208 0.043 0.305 0.021 0.571-0.018 0.223-0.027 0.336 0.104 0.427 0.061 0.043 0.131 0.064 0.202 0.064 0.144 0 0.311-0.098 0.363-0.366 0.009-0.055 0.027-0.232 0.040-0.369 0.012-0.14 0.027-0.256 0.037-0.293 0.003-0.003 0.009-0.009 0.015-0.009 0.107-0.003 0.162-0.055 0.189-0.098 0.067-0.101 0.018-0.189-0.049-0.308-0.018-0.034-0.021-0.043-0.021-0.046 0.006-0.018 0.043-0.070 0.18-0.201 0.18-0.171 0.26-0.244 0.25-0.394 0.018-0.015 0.058-0.046 0.156-0.095l0.226-0.119 0.009-0.275c0.006-0.15 0.055-0.284 0.107-0.348 0.027-0.003 0.076-0.006 0.095-0.006l0.293-0.018 0.15-0.278c0.049-0.092 0.107-0.168 0.122-0.183 0.003-0.003 0.006-0.006 0.009-0.006 0.027-0.003 0.085-0.003 0.113-0.003 0.211 0 0.388 0.049 0.724 0.195 0.296 0.131 0.318 0.15 0.446 0.314 0.058 0.076 0.144 0.177 0.214 0.211 0.061 0.031 0.122 0.046 0.183 0.046 0.217 0 0.372-0.177 0.467-0.308 0.116-0.159 0.147-0.159 0.198-0.159 0.046 0 0.092 0.012 0.293 0.192 0.128 0.116 0.226 0.192 0.394 0.192 0.021 0 0.043 0 0.067-0.003 0.205-0.018 0.546-0.247 0.687-0.345 0.15-0.107 0.26-0.18 0.269-0.189 0.031-0.015 0.055-0.034 0.070-0.055 0.009 0.003 0.018 0.006 0.027 0.006 0.055 0.012 0.131 0.024 0.18 0.027h0.018c0.263 0 0.446-0.232 0.678-0.632 0.165-0.287 0.284-0.357 0.342-0.369 0.027-0.006 0.046-0.009 0.079-0.009 0.049 0 0.125 0.006 0.226 0.018 0.125 0.015 0.208 0.021 0.275 0.021 0.171 0 0.281-0.046 0.372-0.15 0.131-0.15 0.165-0.327 0.198-0.751 0.009-0.098 0.024-0.317 0.049-0.388 0.14-0.049 0.339-0.085 0.479-0.085 0.049 0 0.073 0.006 0.070 0.003 0.076 0.037 0.144 0.052 0.214 0.052 0.098 0 0.18-0.034 0.241-0.064 0.232-0.113 0.473-0.397 0.608-0.717 0.098-0.229 0.101-0.351 0.012-0.589-0.058-0.153-0.058-0.153 0.018-0.241 0.214-0.25 0.211-0.311 0.205-0.895-0.006-0.519-0.006-0.519 0.128-0.62 0.18-0.128 0.217-0.156 0.217-0.253 0-0.031-0.006-0.049-0.031-0.116 0.012-0.006 0.027-0.012 0.046-0.021 0.067-0.031 0.357-0.131 0.666-0.223 0.595-0.183 0.684-0.214 0.888-0.327 0.189-0.107 0.296-0.247 0.369-0.485l0.061-0.189-0.089-0.18c0.043 0.006 0.085 0.012 0.122 0.012 0.024 0 0.043-0.003 0.061-0.003 0.186-0.031 0.379-0.241 0.427-0.409 0.037-0.131 0.040-0.143 0.256-0.339l0.351-0.314-0.137-0.22c-0.018-0.031-0.037-0.070-0.027-0.095 0.006-0.015 0.034-0.070 0.195-0.147 0.079-0.037 0.128-0.043 0.15-0.043 0.031 0 0.040 0.009 0.052 0.024 0.073 0.107 0.153 0.162 0.244 0.162 0.037 0 0.073 0 0.29-0.104 0.092-0.043 0.174-0.076 0.195-0.079 0.021 0 0.085 0.009 0.244 0.095 0.14 0.076 0.241 0.107 0.342 0.107 0.067 0 0.128-0.015 0.189-0.043 0.067-0.034 0.211-0.159 0.272-0.211 0.113-0.098 0.189-0.147 0.238-0.147 0.11 0 0.202-0.076 0.235-0.189 0.006-0.015 0.034-0.058 0.064-0.098 0.116-0.15 0.116-0.223 0.116-0.247-0.003-0.082-0.058-0.168-0.171-0.253z"></path>
</symbol>
<symbol id="usa" viewBox="0 0 32 32">
<path d="M31.98 9.915c-0.003-0.004-0.008-0.008-0.013-0.012-0.255-0.241-2.005-0.091-2.005-0.091s-0.011 0.037-0.039 0.091c-0.059 0.114-0.197 0.304-0.479 0.375-0.414 0.103-6.311 0.207-6.466-0.207-0.026-0.070-0.073-0.124-0.13-0.168-0.282-0.213-0.853-0.143-0.853-0.143s-0.044 0.059-0.116 0.143c-0.161 0.19-0.461 0.51-0.712 0.581-0.28 0.080-0.343-0.273-0.31-0.581 0.010-0.090 0.027-0.176 0.051-0.246 0.072-0.217-0.617-0.967-1.196-1.344-0.247-0.161-0.475-0.254-0.615-0.208-0.465 0.155-2.897-0.776-2.897-0.776h-15.053c0 0-0.032 0.33-0.086 0.618-0.005 0.027-0.010 0.053-0.016 0.078-0.026 0.121-0.055 0.227-0.088 0.287-0.022 0.039-0.045 0.059-0.069 0.051-0.022-0.007-0.055-0.026-0.093-0.051-0.23-0.148-0.698-0.533-0.787-0.311-0.028 0.071-0.001 0.181 0.051 0.311 0.14 0.346 0.466 0.837 0.466 1.137 0 0.066 0 0.227 0 0.453 0 0.258 0 0.6 0 0.984 0 0.494 0 1.055 0 1.59 0 0.348 0 0.684 0 0.984 0 0.536 0 0.956 0 1.11 0 0.202 0.131 0.345 0.294 0.48 0.297 0.245 0.704 0.461 0.637 0.95-0.002 0.011-0.002 0.023-0.003 0.034-0.049 0.576 0.658 1.18 1.149 1.59 0.146 0.122 0.273 0.227 0.354 0.308 0.151 0.151 0.364 0.418 0.585 0.675 0.309 0.36 0.631 0.7 0.812 0.67 0.31-0.052 0.879-0.259 1.242 0.155 0.302 0.345 1.685 0.69 2.374 0.765h0.397c0.393-0.053 1.417-0.195 2.017 0 0.221 0.072 0.384 0.189 0.436 0.373 0.061 0.214 0.172 0.422 0.298 0.611 0.3 0.451 0.685 0.786 0.685 0.786s0.259-0.414 0.414-0.724c0.012-0.024 0.027-0.044 0.045-0.061 0.087-0.084 0.241-0.092 0.417 0 0.265 0.14 0.578 0.51 0.779 1.2 0.040 0.139 0.096 0.269 0.161 0.391 0.228 0.427 0.583 0.752 0.911 0.984 0.418 0.295 0.79 0.436 0.79 0.436s0-0.182 0.003-0.436c0.004-0.287 0.012-0.667 0.029-0.984 0.006-0.104 0.012-0.202 0.020-0.287 0.052-0.569 1.759-1.086 2.069-1.138s2.38 0.88 2.38 0.569c0-0.261 0.329-0.485 0.71-0.734 0.073-0.048 0.147-0.096 0.222-0.145 0.165-0.11 0.368-0.012 0.564 0.145 0.36 0.288 0.696 0.779 0.729 0.579 0.052-0.311 1.035-0.155 1.138 0.207 0.061 0.214 0.14 0.517 0.184 0.805 0.031 0.2 0.044 0.392 0.023 0.541-0.015 0.102 0.053 0.265 0.16 0.443 0.275 0.456 0.815 1.013 0.926 0.902 0.068-0.068 0.146-0.457 0.178-0.902 0.023-0.334 0.020-0.698-0.034-0.984-0.038-0.199-0.1-0.359-0.195-0.442-0.184-0.161-0.327-0.639-0.393-1.148-0.044-0.344-0.054-0.701-0.016-0.984 0.032-0.24 0.097-0.427 0.202-0.507 0.163-0.122 0.74-0.571 1.347-1.084 0.384-0.325 0.78-0.675 1.090-0.984 0.448-0.446 0.716-0.807 0.512-0.881-0.334-0.122-0.382-0.352-0.344-0.709 0.027-0.25 0.095-0.563 0.137-0.946 0.002-0.013 0.003-0.025 0.005-0.037 0.116-0.861 0.723 0.176 0.978-0.997 0.054-0.247 0.192-0.44 0.375-0.593 0.698-0.586 2.043-0.588 1.797-0.752-0.076-0.051-0.13-0.133-0.163-0.232-0.1-0.305 0.005-0.775 0.318-1.010 0.16-0.12 0.482-0.34 0.805-0.581 0.513-0.381 1.029-0.813 0.902-0.971z"></path>
</symbol>
<symbol id="facebook" viewBox="0 0 32 32">
<path d="M28.267 2.667h-24.533c-0.59 0-1.067 0.477-1.067 1.067v24.533c0 0.59 0.477 1.067 1.067 1.067h24.533c0.59 0 1.067-0.477 1.067-1.067v-24.533c0-0.59-0.477-1.067-1.067-1.067zM25.187 10.45h-2.13c-1.67 0-1.993 0.793-1.993 1.96v2.57h3.987l-0.52 4.023h-3.467v10.33h-4.157v-10.327h-3.477v-4.027h3.477v-2.967c0-3.443 2.103-5.32 5.177-5.32 1.473 0 2.737 0.11 3.107 0.16v3.597h-0.003z"></path>
</symbol>
<symbol id="twitter" viewBox="0 0 32 32">
<path d="M28.267 2.667h-24.533c-0.59 0-1.067 0.477-1.067 1.067v24.533c0 0.59 0.477 1.067 1.067 1.067h24.533c0.59 0 1.067-0.477 1.067-1.067v-24.533c0-0.59-0.477-1.067-1.067-1.067zM23.177 12.323c0.010 0.157 0.010 0.32 0.010 0.48 0 4.893-3.727 10.53-10.537 10.53-2.1 0-4.047-0.61-5.687-1.66 0.3 0.033 0.587 0.047 0.893 0.047 1.733 0 3.327-0.587 4.597-1.58-1.627-0.033-2.993-1.1-3.46-2.567 0.57 0.083 1.083 0.083 1.67-0.067-0.838-0.17-1.59-0.625-2.131-1.287s-0.834-1.491-0.833-2.346v-0.047c0.49 0.277 1.067 0.447 1.67 0.47-0.507-0.338-0.923-0.796-1.211-1.333s-0.439-1.137-0.439-1.747c0-0.69 0.18-1.32 0.503-1.867 0.93 1.144 2.090 2.080 3.405 2.747s2.756 1.049 4.228 1.123c-0.523-2.517 1.357-4.553 3.617-4.553 1.067 0 2.027 0.447 2.703 1.167 0.837-0.157 1.637-0.47 2.35-0.89-0.277 0.857-0.857 1.58-1.627 2.037 0.747-0.080 1.467-0.287 2.133-0.577-0.503 0.74-1.133 1.397-1.857 1.92z"></path>
</symbol>
<symbol id="instagram" viewBox="0 0 32 32">
<path d="M15.997 11.554c-2.448 0-4.446 1.998-4.446 4.446s1.998 4.446 4.446 4.446c2.448 0 4.446-1.998 4.446-4.446s-1.998-4.446-4.446-4.446zM29.333 16c0-1.841 0.017-3.666-0.087-5.504-0.103-2.135-0.59-4.029-2.151-5.59-1.564-1.564-3.456-2.048-5.591-2.151-1.841-0.103-3.666-0.087-5.504-0.087-1.841 0-3.666-0.017-5.504 0.087-2.135 0.103-4.029 0.59-5.59 2.151-1.564 1.564-2.048 3.456-2.151 5.59-0.103 1.841-0.087 3.666-0.087 5.504s-0.017 3.666 0.087 5.504c0.103 2.135 0.59 4.029 2.151 5.59 1.564 1.564 3.456 2.048 5.59 2.152 1.841 0.103 3.666 0.087 5.504 0.087 1.841 0 3.666 0.017 5.504-0.087 2.135-0.103 4.029-0.59 5.591-2.152 1.564-1.564 2.048-3.456 2.151-5.59 0.107-1.838 0.087-3.662 0.087-5.504zM15.997 22.841c-3.786 0-6.841-3.055-6.841-6.841s3.055-6.841 6.841-6.841c3.786 0 6.841 3.055 6.841 6.841s-3.055 6.841-6.841 6.841zM23.119 10.476c-0.884 0-1.598-0.714-1.598-1.598s0.714-1.598 1.598-1.598c0.884 0 1.598 0.714 1.598 1.598 0 0.21-0.041 0.418-0.121 0.612s-0.198 0.37-0.346 0.519c-0.148 0.148-0.325 0.266-0.519 0.346s-0.402 0.121-0.612 0.121z"></path>
</symbol>
<symbol id="youtube" viewBox="0 0 32 32">
<path d="M28.777 9.791c-0.152-0.605-0.449-1.157-0.863-1.6s-0.929-0.762-1.494-0.926c-2.080-0.599-10.42-0.599-10.42-0.599s-8.339 0-10.42 0.596c-0.565 0.163-1.081 0.482-1.495 0.925s-0.711 0.995-0.863 1.601c-0.557 2.229-0.557 6.879-0.557 6.879s0 4.65 0.557 6.876c0.307 1.229 1.211 2.197 2.357 2.525 2.080 0.599 10.42 0.599 10.42 0.599s8.339 0 10.42-0.599c1.149-0.328 2.051-1.296 2.357-2.525 0.557-2.226 0.557-6.876 0.557-6.876s0-4.65-0.557-6.876zM13.352 20.934v-8.535l6.905 4.236-6.905 4.299z"></path>
</symbol>
<symbol id="arrow" viewBox="0 0 42 32">
<path d="M41.414 17.414c0.781-0.781 0.781-2.047 0-2.828l-12.728-12.728c-0.781-0.781-2.047-0.781-2.828 0s-0.781 2.047 0 2.828l11.314 11.314-11.314 11.314c-0.781 0.781-0.781 2.047 0 2.828s2.047 0.781 2.828 0l12.728-12.728zM0 18h40v-4h-40v4z"></path>
</symbol>
<symbol id="middle" viewBox="0 0 32 32">
<path d="M28.512 15.744h-25.287c-0.675 0-1.225 0.5-1.225 1.125v1.25c0 0.625 0.55 1.125 1.225 1.125h0.65v4.187c0 2.4 1.5 4.35 3.337 4.35h17.075c1.837 0 3.337-1.95 3.337-4.35v-4.187h0.9c0.675 0 1.225-0.5 1.225-1.125v-1.25c0-0.625-0.55-1.125-1.238-1.125zM26.625 17.656v0.588h-21.75v-0.588c0-0.312 0.037-0.612 0.088-0.912h21.538c0.075 0.3 0.125 0.538 0.125 0.912zM3.225 18.244c-0.138 0-0.225-0.075-0.225-0.125v-1.25c0-0.050 0.087-0.125 0.225-0.125h0.725c-0.050 0.3-0.075 0.6-0.075 0.912v0.588h-0.65zM26.625 23.431c0 1.85-1.050 3.35-2.337 3.35h-17.088c-1.288 0-2.338-1.5-2.338-3.35v-4.187h21.75v4.187h0.013zM28.75 18.119c0 0.050-0.087 0.125-0.225 0.125h-0.9v-0.588c0-0.363-0.038-0.65-0.1-0.912h0.987c0.138 0 0.225 0.075 0.225 0.125v1.25h0.012z"></path>
<path d="M8.3 10.444c0.375 1.2 1.762 1.825 2.45 1.988 0.037 0.012 0.075 0.012 0.112 0.012 0.225 0 0.425-0.15 0.488-0.387 0.063-0.262-0.1-0.537-0.375-0.6-0.587-0.137-1.525-0.637-1.725-1.313-0.137-0.425 0.050-0.912 0.525-1.45 0.662-0.737 0.938-1.488 0.838-2.25-0.162-1.2-1.262-1.925-1.3-1.95-0.238-0.15-0.538-0.088-0.688 0.15-0.15 0.225-0.088 0.537 0.15 0.688 0.013 0 0.762 0.513 0.863 1.263 0.063 0.45-0.137 0.938-0.587 1.438-0.925 1.025-0.913 1.875-0.75 2.412z"></path>
<path d="M13.512 10.444c0.375 1.2 1.762 1.825 2.45 1.988 0.037 0.012 0.075 0.012 0.112 0.012 0.225 0 0.425-0.15 0.488-0.387 0.063-0.262-0.1-0.537-0.375-0.6-0.588-0.137-1.525-0.637-1.725-1.313-0.137-0.425 0.050-0.912 0.525-1.45 0.662-0.737 0.938-1.488 0.838-2.25-0.162-1.2-1.262-1.925-1.313-1.95-0.238-0.15-0.537-0.088-0.687 0.15-0.15 0.225-0.088 0.537 0.15 0.688 0.013 0 0.762 0.513 0.863 1.263 0.063 0.45-0.137 0.938-0.588 1.438-0.912 1.025-0.912 1.875-0.738 2.412z"></path>
<path d="M18.55 10.444c0.375 1.2 1.762 1.825 2.45 1.988 0.038 0.012 0.075 0.012 0.112 0.012 0.225 0 0.425-0.15 0.488-0.387 0.063-0.262-0.1-0.537-0.375-0.6-0.588-0.137-1.525-0.637-1.725-1.313-0.137-0.425 0.050-0.912 0.525-1.45 0.663-0.737 0.938-1.488 0.837-2.25-0.163-1.212-1.262-1.937-1.313-1.962-0.238-0.15-0.538-0.088-0.687 0.15-0.15 0.225-0.088 0.537 0.15 0.688 0.013 0 0.762 0.513 0.863 1.262 0.063 0.45-0.137 0.938-0.587 1.438-0.913 1.037-0.9 1.887-0.738 2.425z"></path>
</symbol>
<symbol id="chinese" viewBox="0 0 32 32">
<path d="M30.513 11.076c-0.198-0.408-0.553-0.698-0.988-0.817 0.237-0.422 0.277-0.935 0.066-1.383-0.184-0.382-0.514-0.672-0.935-0.804-0.408-0.119-0.843-0.092-1.238 0.092-0.646 0.303-1.001 1.067-1.001 1.739-0.777 0.356-2.609 1.186-3.518 1.607-0.092-0.013-0.198-0.026-0.316-0.026-0.553 0-1.581 0.158-2.688 0.382-1.897-1.449-4.15-2.226-6.521-2.226-5.928 0-10.777 4.874-10.974 10.948-0.685 0.171-1.199 0.777-1.199 1.502 0 0.856 0.725 1.555 1.607 1.555h21.685c0.883 0 1.607-0.698 1.607-1.555s-0.725-1.555-1.607-1.555h-0.132c-0.066-1.792-0.553-3.544-1.397-5.098l1.199-0.935c0.079-0.066 0.145-0.158 0.184-0.263 0-0.013 0.013-0.053 0.026-0.105 0.896-0.422 2.424-1.146 3.201-1.515 0.408 0.672 1.317 0.935 2.095 0.566 0.817-0.382 1.199-1.331 0.843-2.108zM25.019 22.089c0 0.277-0.25 0.501-0.553 0.501h-21.685c-0.303 0-0.553-0.224-0.553-0.501s0.25-0.501 0.553-0.501h21.685c0.303 0 0.553 0.224 0.553 0.501zM23.28 20.535h-19.854c0.224-5.467 4.598-9.841 9.92-9.841 1.831 0 3.57 0.501 5.098 1.462-1.686 0.369-3.215 0.751-3.346 0.777-0.040 0.013-0.461 0.211-0.461 0.211-1.199 0.566-2.398 2.793-1.541 4.611 0.632 1.344 2.213 1.963 3.412 1.963 0.435 0 0.83-0.079 1.133-0.224 0.158-0.079 0.316-0.171 0.448-0.303l3.992-3.096c0.725 1.357 1.133 2.872 1.199 4.44zM17.444 18.361c-0.013 0.013-0.026 0.013-0.026 0.026-0.066 0.053-0.132 0.105-0.211 0.132-0.171 0.079-0.408 0.119-0.685 0.119-0.896 0-2.029-0.461-2.45-1.357-0.593-1.265 0.343-2.872 1.041-3.201l0.316-0.145c1.62-0.408 5.915-1.397 7.141-1.397 0.105 0 0.145 0.013 0.158 0.013 0.264 0.066 0.448 0.184 0.54 0.369 0.132 0.237 0.132 0.553 0.105 0.777v0.013c0 0.026-0.013 0.053-0.013 0.079l-5.915 4.572zM29.196 12.235c-0.316 0.145-0.659 0.053-0.764-0.184-0.013-0.026-0.145-0.316-0.145-0.329l-0.211-0.514-0.501 0.237c0 0-1.884 0.896-3.188 1.515-0.040-0.184-0.105-0.369-0.198-0.553-0.053-0.092-0.105-0.171-0.171-0.25 1.304-0.593 3.188-1.449 3.188-1.449l0.435-0.198-0.145-0.448c-0.079-0.264 0.105-0.804 0.382-0.935 0.158-0.079 0.329-0.092 0.487-0.040 0.079 0.026 0.211 0.092 0.29 0.237 0.105 0.224-0.013 0.514-0.277 0.672l-0.395 0.25 0.474 1.159 0.474-0.119c0.277-0.066 0.553 0.026 0.646 0.237 0.092 0.237-0.066 0.566-0.382 0.711z"></path>
<path d="M5.521 17.262c-0.29 0-0.527 0.237-0.527 0.527v0.171c0 0.29 0.237 0.527 0.527 0.527s0.527-0.237 0.527-0.527v-0.171c0-0.29-0.237-0.527-0.527-0.527z"></path>
<path d="M7.207 17.064v-0.171c0-0.29-0.237-0.527-0.527-0.527s-0.527 0.237-0.527 0.527v0.171c0 0.29 0.237 0.527 0.527 0.527s0.527-0.237 0.527-0.527z"></path>
<path d="M6.97 18.157c-0.29 0-0.527 0.237-0.527 0.527v0.171c0 0.29 0.237 0.527 0.527 0.527s0.527-0.237 0.527-0.527v-0.171c0-0.29-0.237-0.527-0.527-0.527z"></path>
</symbol>
<symbol id="slovakia" viewBox="0 0 65 32">
<path d="M22.393 14.973l0.046-0.095 0.173-0.079 0.14-0.192 0.206-0.108 0.084 0.020 0.012 0.158 0.075 0.006-0.007 0.132 0.194 0.028 0.118 0.113 0.105 0.006 0.153-0.116 0.254 0.068 0.299-0.039 0.092-0.172 0.172-0.138 0.049-0.382-0.258-0.223-0.054-0.1-0.014-0.152 0.095-0.171-0.088-0.389 0.048-0.052 0.072 0.043 0.119-0.013 0.142-0.18 0.083-0.302 0.195-0.086 0.063 0.003 0.092 0.094 0.139 0.008 0.073-0.034 0.222 0.042 0.518-0.081 0.116 0.045 0.14-0.077 0.148 0.055 0.207-0.201 0.386-0.108 0.215 0.099 0.066 0.165 0.007 0.235-0.169 0.143 0.022 0.064 0.728-0.116 0.219-0.475 0.534-0.616h0.709l0.174-0.044 0.383-0.205 0.325 0.043 0.159-0.109 0.148 0.087 0.164 0.005 0.236 0.088 0.083 0.109 0.289 0.209 0.156 0.058 0.328 0.266h0.32l0.503-0.184 0.16 0.189 0.192-0.117 0.128-0.004 0.242-0.153 0.248 0.009 0.064 0.089 0.119 0.046 0.502-0.069 0.854 0.039 0.267-0.15 0.201 0.208 0.556 0.052 0.128 0.161 0.94 0.137 0.204-0.14 0.161-0.273 0.232 0.217 0.162-0.022 0.138 0.042 0.294 0.324 0.156 0.049-0.147 0.067-0.115 0.415-0.466 0.428 0.022 0.386-0.094 0.092 0.088 0.069 0.064 0.276-0.26 0.168-0.014 0.102 0.029 0.222 0.089 0.027-0.033 0.21 0.051 0.122 0.218-0.031 0.462 0.395 0.113 0.242 0.136 0.125 0.156 0.355 0.139 0.114-0.107 0.204 0.040 0.356 0.056 0.1-0.060 0.062 0.004 0.083 0.211 0.103 0.241-0.052 0.069 0.156 0.142 0.023-0.063 0.339-0.242 0.477 0.001 0.194-0.091 0.171-0.144 0.125-0.057 0.306 0.099 0.152-0.022 0.203 0.054 0.082 0.035-0.051 0.081 0.047 0.060-0.022 0.001 0.12 0.058 0.055-0.029 0.061 0.381-0.011 0.227-0.073 0.102-0.075 0.154-0.248 0.128-0.039 0.068 0.217 0.164-0.002 0.183-0.096 0.099 0.079 0.002 0.075 0.067 0.146-0.096 0.1-0.143 0.042-0.087 0.196-0.272 0.26-0.034 0.147 0.057 0.115-0.015 0.168-0.163 0.221 0.089 0.198-0.014 0.064-0.245 0.234-0.047 0.126-0.182 0.216 0.062 0.092-0.092 0.152-0.319 0.308-0.043 0.087 0.020 0.115-0.034-0.036-0.044 0.028-0.031 0.256-0.208-0.008 0.055 0.14-0.296 0.051-0.287-0.224-0.221-0.091-0.154 0.054 0.092 0.096-0.079 0.157-0.13 0.045-0.156-0.023 0.049 0.161-0.338 0.047-0.077-0.056-0.17 0.016-0.107-0.069-0.116 0.027-0.022 0.073 0.076 0.099-0.078 0.306-0.344 0.268-0.164 0.216-0.106-0.016-0.092 0.095-0.022 0.052 0.116 0.057-0.005 0.036-0.198 0.099-0.081 0.138-0.056 0.017-0.075-0.107-0.114-0.047-0.3 0.084-0.124 0.064-0.040 0.088-0.144-0.046-0.125 0.204-0.146 0.025-0.163 0.319-0.321 0.062-0.099 0.064 0.034-0.192 0.123-0.178-0.162-0.309-0.129 0.022-0.095-0.084-0.208-0.012-0.054-0.139-0.134 0.265h-0.099l-0.145-0.127-0.158 0.136-0.011 0.105-0.137 0.025-0.124-0.176 0.064-0.056 0.019-0.101 0.169-0.163-0.076-0.181-0.12 0.027-0.083-0.143-0.178-0.093-0.051-0.111-0.163-0.042-0.118 0.015-0.128 0.208-0.205 0.027-0.128-0.051-0.169-0.158-0.112-0.438-0.113-0.037-0.135 0.056-0.188-0.191-0.258 0.2-0.071 0.129-0.093 0.039-0.158 0.18-0.149 0.042-0.212 0.148-0.088-0.049-0.16 0.106 0.022 0.217-0.235 0.293 0.055 0.356-0.197 0.197 0.035 0.275-0.134 0.259 0.042 0.133-0.109 0.094-0.111-0.007-0.016 0.189-0.068 0.013-0.091-0.126-0.004-0.167-0.127-0.016-0.233 0.232-0.26 0.074-0.162-0.148-0.133 0.028-0.012 0.055-0.161-0.054-0.185 0.047-0.115-0.056-0.329 0.045-0.195 0.113-0.086 0.119-0.256 0.071-0.058 0.201-0.085 0.067-0.152-0.056-0.101-0.103-0.116-0.012-0.235 0.085-0.605-0.239-0.083 0.007-0.077 0.131-0.153 0.012-0.203-0.134-0.071 0.012-0.035 0.073-0.218 0.142-0.139-0.142-0.138 0.041-0.225-0.202-0.002-0.268 0.115-0.054 0.040-0.172 0.233-0.166 0.193-0.297-0.043-0.252-0.144-0.22 0.084-0.057 0.032-0.208 0.113-0.101-0.080-0.084 0.099-0.109-0.249-0.172-0.168 0.204-0.139 0.045-0.121-0.045-0.033 0.049-0.418 0.142-0.102-0.095-0.137 0.225-0.101-0.166-0.097-0.028-0.067 0.188 0.083 0.246-0.468-0.026-0.359-0.099-0.101-0.103-0.246-0.079-0.064 0.037 0.013 0.137-0.037 0.026-0.183-0.035-0.059-0.326 0.107-0.141 0.081 0.018 0.176-0.206-0.223-0.341 0.007-0.084 0.091-0.005 0.005-0.044-0.149-0.183 0.073-0.202 0.124-0.104 0.181-0.060-0.006-0.335 0.118-0.316-0.068-0.233-0.138-0.017-0.077-0.129-0.020-0.272-0.155-0.424-0.246-0.132-0.056 0.022-0.099-0.234-0.216-0.2 0.020-0.115-0.126-0.112-0.163 0.005-0.163 0.241-0.196 0.135 0.027 0.061-0.084 0.103-0.073 0.009 0.015 0.14-0.111 0.041 0.008 0.224-0.077 0.079-0.219 0.145-0.035-0.088-0.194-0.043-0.076 0.096-0.288 0.145-0.303-0.106-0.176 0.275-0.156 0.141-0.054 0.134-0.055-0.042 0.013-0.092-0.096-0.105-0.016-0.117-0.113-0.18-0.015-0.678 0.033-0.132 0.108-0.095 0.007-0.126 0.183-0.447-0.086-0.111-0.020-0.219-0.154-0.008 0.26-0.393-0.131 0.016 0.077-0.394-0.078-0.142-0.035 0.028-0.118-0.058-0.161-0.001-0.097 0.039-0.024 0.113-0.124-0.020 0.046-0.221 0.157-0.151-0.012-0.105-0.083-0.112-0.021-0.212 0.053-0.384 0.178-0.007 0.321 0.086 0.4-0.004 0.114-0.1 0.127-0.014 0.049-0.122-0.014-0.18 0.083-0.142 0.146-0.098 0.207-0.41 0.175-0.179 0.213 0.109 0.158 0.038 0.114-0.027 0.223 0.103 0.019-0.139-0.052-0.225 0.301-0.244 0.115-0.502 0.127-0.104 0.181 0.060 0.151-0.102 0.155-0.243 0.126-0.322 0.067-0.052z"></path>
<path d="M1.3 18.504l0.314 0.002 0.022-0.181 0.346-0.039 0.357-0.147 0.032 0.058 0.156 0.013v-0.065l-0.119-0.139 0.012-0.067 0.416 0.25 0.217-0.122 0.075 0.148 0.101 0.027 0.776-0.175 0.276-0.148 0.26-0.046 0.055-0.191 0.259-0.163 0.719-1.063 0.159 0.141 0.157 0.066 0.143 0.283 0.023 0.184-0.041 0.091-0.18 0.108-0.137 0.217-0.216 0.017-0.078 0.279-0.415 0.285-0.035 0.106 0.354 0.252 0.047 0.208 0.228 0.036 0.007 0.148 0.204 0.097-0.023 0.076-0.085 0.055 0.009 0.107-0.060 0.133-0.201 0.069-0.003 0.073-0.114 0.149 0.018 0.075 0.158 0.184 0.296 0.014 0.183 0.199 0.349 0.003-0.056 0.323 0.179 0.025-0.005 0.14 0.152 0.067 0.148 0.521 0.061 0.078 0.181-0.071 0.198 0.187 0.065 0.256-0.164 0.421-0.13 0.058 0.117 0.119-0.062 0.169 0.117 0.012 0.060 0.135 0.186 0.149 0.048 0.020 0.119-0.094 0.141 0.161-0.366 0.461-0.103 0.394 0.064 0.067 0.145 0.014 0.315 0.148v0.113l-0.134 0.192 0.018 0.076 0.126 0.058 0.011 0.27-0.039 0.061-0.16 0.017-0.036 0.088-0.186 0.007-0.12 0.122-0.082 0.185-0.309 0.111-0.201-0.136-0.175-0.008 0.009-0.242-0.205-0.067-0.136 0.121 0.048 0.181 0.115 0.064-0.117 0.202-0.119-0.031-0.303 0.238-0.068-0.023-0.172 0.102-0.13-0.080-0.065 0.012-0.020 0.079 0.053 0.063-0.036 0.169 0.084 0.16 0.118 0.088h0.101l0.115-0.138 0.118 0.062 0.007 0.084-0.156 0.032-0.052 0.321-0.218 0.032-0.107-0.109-0.056 0.022 0.013 0.162 0.072 0.135-0.284 0.144-0.162 0.219-0.103 0.004 0.012 0.111-0.122 0.128-0.051-0.156-0.189 0.099-0.277-0.057-0.448 0.215-0.225-0.24-0.162-0.005-0.157-0.157-0.236 0.168-0.244-0.179 0.195-0.229-0.038-0.088-0.166-0.073 0.195-0.178-0.145-0.088 0.068-0.126-0.061-0.085 0.209-0.142-0.051-0.082 0.047-0.051-0.18-0.118-0.046-0.062 0.035-0.075-0.081-0.016-0.078-0.1 0.067-0.044-0.135-0.317-0.182 0.054-0.133-0.019-0.369-0.366-0.223-0.151 0.005-0.276-0.153-0.586-0.159-0.233 0.111-0.464-0.112-0.103-0.259-0.037-0.168-0.261 0.046-0.073-0.056 0.027-0.142-0.318 0.109-0.019-0.059-0.079 0.094-0.184-0.406-0.202 0.006-0.178-0.232 0.012-0.106-0.083-0.017-0.301-0.087-0.178 0.026-0.039 0.165 0.002 0.002-0.134 0.086-0.171-0.067-0.038-0.015-0.134 0.128-0.135-0.107-0.206-0.031-0.287 0.145-0.082-0.040-0.080 0.044-0.117 0.094-0.039 0.057-0.112 0.214-0.179-0.056-0.106 0.037-0.078 0.107-0.045 0.086 0.057 0.064-0.018-0.055-0.275 0.1-0.021-0.014-0.108 0.112-0.068 0.025 0.047 0.117-0.004-0.025-0.116z"></path>
<path d="M38.548 12.767l0.187 0.152 0.157-0.043 0.025-0.16-0.057-0.064-0.003-0.113 0.080-0.12 0.004-0.433 0.148-0.092 0.017-0.058-0.011-0.099-0.117-0.087-0.025-0.094 0.378-0.393 0.132-0.046 0.071-0.104 0.158-0.099 0.204-0.053 0.168-0.214 0.377 0.156 0.332 0.236 0.124 0.143 0.198 0.077 0.091 0.099 0.176 0.005-0.363-0.463 0.051-0.143 0.258-0.247 0.069 0.044 0.122 0.246 0.209 0.177 0.027 0.115 0.26 0.14 0.133-0.079 0.254-0.019 0.382 0.607 0.1 0.021 0.224 0.171-0.037-0.096 0.033-0.251 0.127-0.109-0.002-0.16 0.049-0.044 0.344-0.116 0.083 0.032 0.1 0.198 0.229-0.174 0.058 0.031 0.052 0.142 0.079 0.006 0.118-0.083 0.020-0.031-0.122-0.181 0.013-0.139-0.108-0.138 0.057-0.046 0.126 0.079 0.129 0.011 0.237 0.177 0.307-0.118-0.021 0.089-0.195 0.129 0.080 0.087 0.165-0.002 0.031 0.075 0.609-0.193 0.248 0.066 0.184 0.135 0.13 0.275 0.055 0.024 0.322-0.242 0.254 0.423 0.165 0.097 0.046 0.297 0.473 0.027 0.318 0.129 0.318 0.022 0.146-0.143 0.097 0.085 0.175 0.053 0.1 0.259 0.168 0.157 0.209-0.221 0.281 0.165 0.031-0.099 0.141 0.005-0.006 0.191 0.229-0.099 0.057 0.185-0.172 0.586 0.135 0.166 0.258 0.154 0.209-0.094-0.011-0.193 0.154-0.138 0.089-0.037 0.105 0.066 0.099-0.088 0.324 0.001 0.036-0.125 0.102-0.102-0.012-0.253 0.034-0.041-0.076-0.182 0.048-0.055 0.178-0.045 0.219 0.201 0.034-0.372 0.064 0.095 0.060 0.285 0.234 0.042 0.063-0.031v-0.080l0.13-0.020 0.196-0.15 0.007 0.306 0.135 0.035 0.064 0.073-0.108 0.123 0.017 0.149 0.129 0.165 0.165 0.082 0.094 0.187-0.023 0.188 0.137 0.235 0.399 0.104 0.079 0.076-0.011 0.102 0.205-0.006 0.238 0.142 0.444-0.137 0.118 0.178 0.181 0.144 0.256-0.040 0.443-0.243 0.103 0.011 0.001 0.079 0.060-0.261 0.205-0.065 0.218-0.183 0.021-0.182-0.118-0.177-0.073-1.049 0.039-0.235 0.116-0.082 0.182 0.022 0.115 0.212 0.066-0.027 0.064 0.046 0.082-0.058 0.196-0.024 0.568 0.221 0.299 0.204 0.196 0.329 0.386 0.041 0.079 0.147 0.373 0.002 0.466-0.107 0.649 0.012 0.047-0.086-0.032-0.573 0.085-0.094 0.208-0.083 0.1-0.228 0.325-0.331 0.358 0.045 0.121 0.085 0.111 0.456 0.108 0.157 0.027 0.252 0.54-0.019 0.232-0.094 0.175 0.094 0.368 0.018 0.077 0.054-0.098 0.503 0.098 0.213 0.029 0.381-0.088 0.095-0.063 0.18-0.288 0.289-0.051 0.274 0.199 0.158 0.004 0.218-0.116 0.13-0.128 0.625-0.408 0.132-0.273 0.272-0.31 0.224-0.077 0.267-0.158 0.158-0.176 0.005-0.157 0.203h-0.127l-0.008 0.103-0.071 0.013-0.219 0.49-0.080 0.923-0.206 1.444 0.024 0.404 0.051 0.124 0.105-0.004-0.043 0.132-0.214 0.077 0.056 0.176h-0.13l-0.042 0.047-0.095-0.032-0.128 0.063-0.055-0.091-0.104 0.155-0.031-0.154-0.085-0.087-0.037 0.084-0.149-0.015-0.043 0.082-0.314-0.253-0.137 0.137-0.302 0.087-0.039 0.049-0.020-0.061-0.399 0.022-0.165 0.129-0.066-0.006 0.049 0.077-0.058 0.085-0.101-0.022-0.102-0.097-0.105 0.063-0.028-0.086-0.005 0.125-0.057-0.007 0.023-0.089-0.058-0.032-0.067 0.082 0.054 0.115-0.053 0.024 0.002-0.081-0.041-0.008-0.044 0.102-0.086-0.035-0.037 0.076-0.055-0.028-0.028-0.153-0.211-0.001-0.041 0.053-0.008 0.438-0.117 0.062-0.073 0.003 0.015-0.074-0.153-0.020-0.047-0.072-0.372 0.025-0.093-0.094-0.362-0.059-0.155-0.097 0.022-0.192-0.082 0.003-0.063-0.073 0.064-0.113-0.048-0.092-0.228-0.135-0.127 0.027-0.102-0.132-0.015-0.343-0.032 0.014-0.179-0.515-0.085-0.041-0.071-0.132 0.026-0.062-0.104-0.141 0.032-0.084-0.044-0.023 0.017-0.298-0.036-0.093-0.055 0.009-0.021-0.215-0.094 0.038-0.134-0.105-0.083 0.041-0.071 0.134-0.142-0.021-0.059-0.108-0.081 0.060-0.126 0.001-0.026-0.106-0.158-0.14-0.122-0.286 0.003-0.178-0.094-0.034-0.006-0.058h-0.065l-0.016-0.087-0.139 0.026-0.066-0.107-0.073 0.012-0.143-0.149-0.136-0.032-0.119-0.18-0.112 0.017-0.072 0.089-0.025 0.285-0.061 0.059-0.177-0.081-0.244 0.087-0.324-0.031-0.3 0.044-0.015-0.057-0.051 0.082 0.114 0.035-0.134 0.048 0.079 0.080-0.048 0.128-0.077-0.012 0.063 0.123-0.135 0.088 0.016 0.076-0.102 0.015-0.28-0.101-0.051 0.039-0.313-0.232-0.073 0.006-0.006 0.080-0.13-0.056-0.047 0.093-0.088-0.025 0.002 0.105-0.151 0.059-0.037-0.033-0.012 0.053-0.051-0.034-0.083 0.106-0.080-0.074-0.252 0.109-0.2 0.382-0.124 0.033-0.123-0.016-0.111-0.095-0.009-0.209-0.062-0.109-0.2-0.065-0.117-0.091-0.143 0.076-0.001-0.086-0.086 0.027-0.122-0.031-0.079-0.076-0.041 0.040-0.102-0.051-0.238 0.1-0.126 0.152-0.081-0.096-0.096 0.048-0.095-0.040-0.014-0.181-0.159-0.033-0.016-0.115-0.075 0.064-0.072-0.234-0.111-0.098-0.428 0.115-0.152-0.009-0.161-0.217-0.052 0.009v-0.229l-0.097 0.026 0.074-0.132-0.448 0.153-0.774 0.086-0.049 0.071-0.062-0.067-0.178-0.003-0.326 0.156-0.296 0.008-0.114 0.135-0.041-0.043-0.075 0.074-0.147 0.029-0.075 0.101-0.161-0.001-0.129 0.065-0.036 0.075-0.428-0.166-0.113 0.278-0.121-0.045-0.076-0.107-0.123 0.044-0.080 0.097 0.011 0.157 0.086 0.098-0.044 0.111 0.014 0.296-0.143 0.031-0.12 0.246-0.225 0.144-0.002-0.075-0.099-0.079-0.183 0.096-0.164 0.002-0.068-0.217-0.128 0.039-0.154 0.248-0.102 0.075-0.227 0.073-0.381 0.011 0.029-0.061-0.058-0.055-0.001-0.12-0.060 0.022-0.081-0.047-0.035 0.051-0.054-0.082 0.022-0.203-0.099-0.152 0.057-0.306 0.144-0.125 0.091-0.171-0.001-0.194 0.242-0.477 0.063-0.339-0.142-0.023-0.069-0.156-0.241 0.052-0.211-0.103-0.014-0.059 0.069-0.086-0.056-0.1-0.040-0.356 0.107-0.204-0.139-0.114-0.156-0.355-0.136-0.125-0.113-0.242-0.462-0.395-0.218 0.031-0.051-0.122 0.033-0.21-0.089-0.027-0.029-0.222 0.014-0.102 0.26-0.168-0.064-0.276-0.088-0.069 0.094-0.092-0.022-0.386 0.466-0.428 0.115-0.415z"></path>
<path d="M12.859 17.091l0.156-0.056 0.056-0.1 0.085 0.017 0.121-0.108 0.035-0.122-0.005-0.267-0.077-0.061-0.089-0.316-0.081-0.075-0.054-0.366 0.15-0.155 0.14-0.014 0.126 0.153 0.523-0.012 0.203 0.117 0.154-0.054 0.374 0.341 0.144 0.455 0.175 0.169 0.149-0.082 0.168 0.091 0.115-0.029 0.134 0.072 0.152 0.425 0.121 0.18-0.033 0.198-0.255 0.246 0.173 0.142-0.088 0.101-0.003 0.111 0.038 0.054 0.331-0.004 0.123 0.098 0.21 0.357 0.163 0.176 0.056 0.276 0.069 0.097 0.334 0.101 0.093-0.056 0.028-0.131 0.034 0.137 0.144 0.134 0.047-0.164 0.206-0.118 0.341-0.346 0.301-0.141 0.305-0.285 0.205-0.011 0.021 0.212 0.083 0.112 0.012 0.105-0.157 0.151-0.046 0.221 0.124 0.020 0.024-0.113 0.097-0.039 0.161 0.001 0.118 0.058 0.035-0.028 0.078 0.142-0.077 0.394 0.131-0.016-0.26 0.393 0.154 0.008 0.020 0.219 0.086 0.111-0.183 0.447-0.007 0.126-0.108 0.095-0.033 0.132 0.015 0.678 0.113 0.18 0.016 0.117 0.096 0.105-0.013 0.092 0.055 0.042 0.054-0.134 0.156-0.141 0.176-0.275 0.303 0.106 0.288-0.145 0.076-0.096 0.194 0.043 0.035 0.088 0.219-0.145 0.077-0.079-0.008-0.224 0.111-0.041-0.015-0.14 0.073-0.009 0.084-0.103-0.027-0.061 0.196-0.135 0.163-0.241 0.163-0.005 0.126 0.112-0.020 0.115 0.216 0.2 0.099 0.234 0.056-0.022 0.246 0.132 0.155 0.424 0.020 0.272 0.077 0.129 0.138 0.017 0.068 0.233-0.118 0.316 0.006 0.335-0.181 0.060-0.124 0.104-0.073 0.202 0.149 0.183-0.005 0.044-0.091 0.005-0.007 0.084 0.223 0.341-0.176 0.206-0.081-0.018-0.107 0.141 0.059 0.326 0.183 0.035 0.037-0.026-0.013-0.137 0.064-0.037 0.246 0.079 0.101 0.103 0.359 0.099 0.468 0.026-0.083-0.246 0.067-0.188 0.097 0.028 0.101 0.166 0.137-0.225 0.102 0.095 0.418-0.142 0.033-0.049 0.121 0.045 0.139-0.045 0.168-0.204 0.249 0.172-0.099 0.109 0.080 0.084-0.113 0.101-0.032 0.208-0.084 0.057 0.144 0.22 0.043 0.252-0.193 0.297-0.233 0.166-0.040 0.172-0.115 0.054 0.002 0.268-0.055 0.021-0.019 0.093-0.107 0.012-0.179 0.223-0.518-0.057-0.328 0.117-0.181-0.052-0.039-0.062-0.067 0.111 0.016 0.052-0.208-0.003-0.109 0.053-0.122-0.081-0.14 0.079-0.098 0.154 0.054 0.028 0.014 0.087-0.129 0.146 0.046 0.241-0.054 0.242-0.028-0.055-0.052 0.076 0.051 0.016-0.132 0.104-0.204-0.040-0.089 0.046-0.028-0.049-0.061 0.052 0.046 0.035-0.1 0.044-0.057 0.099 0.046 0.098 0.117 0.071 0.058 0.184-0.101 0.015 0.074 0.329-0.184 0.216 0.087 0.176-0.049 0.035 0.039 0.047-0.054 0.108 0.042 0.216-0.039 0.021 0.023 0.229 0.322 0.075 0.082 0.117 0.258 0.122 0.095 0.254 0.22 0.128-0.022 0.166-0.62-0.092-0.618 0.171-0.139 0.408-0.493 0.347-0.199 0.084-0.532 0.082-0.556-0.134-0.299 0.014-0.259 0.158-0.246 0.048-0.077-0.009-0.174-0.137-0.244-0.060-0.404 0.195-0.3 0.039-0.566 0.221-0.536 0.1-0.729-0.178-0.603 0.013-0.38-0.124-0.722-0.132-0.498-0.002-0.303 0.171-0.349-0.188-0.288 0.218-0.378 0.018-0.168 0.067-0.436-0.112-0.152 0.069-0.4-0.014-0.268 0.059-0.242-0.155-0.6-0.136-0.185-0.215 0.2-0.189 0.111-0.496 0.203-0.005 0.042 0.071 0.129 0.001 0.071 0.059 0.092-0.2 0.304-0.2 0.046-0.136-0.049-0.32 0.122-0.246 0.247-0.083 0.195-0.293 0.32-0.185 0.146-0.179-0.261-0.259 0.124-0.216-0.068-0.417 0.080-0.418-0.134-0.249 0.027-0.224-0.045-0.106 0.165-0.127-0.053-0.106 0.008-0.153-0.089-0.101-0.147-0.012-0.187-0.122 0.121-0.161-0.076-0.129-0.288 0.22-0.12-0.022-0.048-0.229 0.134-0.331-0.016-0.225-0.31-0.359-0.418-0.26 0.267-0.195 0.149-0.005 0.091 0.133 0.091 0.003 0.152-0.187-0.199-0.394 0.214 0.027 0.134-0.036 0.124 0.113 0.049-0.113 0.248-0.113 0.115-0.124 0.029-0.189-0.039-0.139-0.304-0.097-0.127-0.208 0.037-0.115 0.104 0.062 0.13-0.084-0.011-0.115-0.063-0.062 0.175-0.281-0.064-0.147-0.243-0.025-0.078-0.157 0.155-0.125 0.031-0.438 0.123-0.096-0.048-0.221 0.172-0.133-0.047-0.072 0.108-0.057 0.042-0.142 0.275-0.418 0.181-0.419-0.006-0.086 0.119-0.191 0.167-0.003-0.033-0.102 0.134-0.2-0.040-0.112-0.269-0.189-0.325-0.402-0.103-0.080-0.365-0.081-0.043-0.075-0.081 0.003-0.011-0.109 0.195-0.154 0.104-0.547 0.204-0.245 0.066-0.262 0.225 0.079 0.079 0.086 0.314-0.025-0.029-0.115 0.14-0.012 0.141-0.129z"></path>
<path d="M50.288 2.891l0.317-0.052 0.137 0.022 0.056 0.088 0.166 0.081 0.064 0.144 0.135-0.041 0.214 0.022 0.046 0.114 0.302 0.244 0.152-0.003 0.125-0.063 0.192 0.031 0.142-0.244 0.057-0.021 0.297 0.2 0.040-0.043-0.047-0.093 0.135-0.161 0.23 0.034 0.158-0.14 0.101 0.092 0.175 0.041 0.057-0.048 0.082 0.019 0.132-0.152 0.201-0.065 0.128 0.292 0.167 0.128 0.003 0.111 0.258 0.103 0.203-0.136 0.245 0.114 0.053 0.238 0.1-0.004 0.084 0.124 0.23 0.14 0.051 0.307 0.101 0.154 0.14 0.041-0.015-0.239 0.098-0.174 0.174-0.065 0.147-0.14 0.175-0.012 0.079 0.093 0.001 0.125 0.124 0.162 0.065 0.005 0.083-0.073 0.126 0.038 0.114 0.238 0.108 0.115 0.041-0.052 0.121-0.005 0.153 0.127 0.27-0.060 0.079 0.027 0.254 0.643 0.18 0.223 0.358 0.298-0.011 0.286 0.128 0.128-0.106 0.514 0.174 0.142 0.633 0.226 0.433 0.076 0.020 0.134 0.384 0.177 0.115 0.113 0.098-0.033 0.134-0.14 0.155 0.025 0.081 0.078 0.037 0.142-0.096 0.189 0.002 0.112 0.253 0.016 0.786 0.282 0.173-0.178 0.378 0.026 0.13 0.224 0.111 0.055 0.021 0.148 0.354 0.346 0.064 0.014 0.182-0.091 0.143 0.004 0.409 0.292 0.064 0.012 0.148-0.111 0.334-0.046 0.264 0.152-0.142 0.147-0.024 0.844-0.148 0.125 0.092 0.246-0.278 0.168-0.218-0.051-0.26 0.126-0.052 0.272-0.089 0.066-0.467 0.737 0.073 0.145-0.073 0.126-0.045 0.475-0.268 0.154-0.137 0.204-0.077-0.054-0.368-0.018-0.175-0.094-0.232 0.094-0.54 0.019-0.027-0.252-0.108-0.157-0.111-0.456-0.121-0.085-0.358-0.045-0.325 0.331-0.1 0.228-0.208 0.083-0.085 0.094 0.032 0.573-0.047 0.086-0.649-0.012-0.466 0.107-0.373-0.002-0.079-0.147-0.386-0.041-0.196-0.329-0.299-0.204-0.568-0.221-0.196 0.024-0.082 0.058-0.064-0.046-0.066 0.027-0.115-0.212-0.182-0.022-0.116 0.082-0.039 0.235 0.073 1.049 0.118 0.177-0.021 0.182-0.218 0.183-0.205 0.065-0.060 0.261-0.001-0.079-0.103-0.011-0.443 0.243-0.256 0.040-0.181-0.144-0.118-0.178-0.444 0.137-0.238-0.142-0.205 0.006 0.011-0.102-0.079-0.076-0.399-0.104-0.137-0.235 0.023-0.188-0.094-0.187-0.165-0.082-0.129-0.165-0.017-0.149 0.108-0.123-0.064-0.073-0.135-0.035-0.007-0.306-0.196 0.15-0.13 0.020v0.080l-0.063 0.031-0.234-0.042-0.060-0.285-0.064-0.095-0.034 0.372-0.219-0.201-0.178 0.045-0.048 0.055 0.076 0.182-0.034 0.041 0.012 0.253-0.102 0.102-0.036 0.125-0.324-0.001-0.099 0.088-0.105-0.066-0.089 0.037-0.154 0.138 0.011 0.193-0.209 0.094-0.258-0.154-0.135-0.166 0.172-0.586-0.057-0.185-0.229 0.099 0.006-0.191-0.141-0.005-0.031 0.099-0.281-0.165-0.209 0.221-0.168-0.157-0.1-0.259-0.175-0.053-0.097-0.085-0.146 0.143-0.318-0.022-0.318-0.129-0.473-0.027-0.046-0.297-0.165-0.097-0.254-0.423-0.322 0.242-0.055-0.024-0.13-0.275-0.184-0.135-0.248-0.066-0.609 0.193-0.031-0.075-0.165 0.002-0.080-0.087 0.195-0.129 0.021-0.089-0.307 0.118-0.237-0.177-0.129-0.011-0.126-0.079-0.057 0.046 0.108 0.138-0.013 0.139 0.122 0.181-0.020 0.031-0.118 0.083-0.079-0.006-0.052-0.142-0.058-0.031-0.229 0.174-0.1-0.198-0.083-0.032-0.344 0.116-0.049 0.044 0.002 0.16-0.127 0.109-0.033 0.251 0.037 0.096-0.224-0.171-0.1-0.021-0.382-0.607-0.254 0.019-0.133 0.079-0.26-0.14-0.027-0.115-0.209-0.177-0.122-0.246-0.069-0.044-0.258 0.247-0.051 0.143 0.363 0.463-0.176-0.005-0.091-0.099-0.198-0.077-0.124-0.143-0.332-0.236-0.377-0.156-0.168 0.214-0.204 0.053-0.158 0.099-0.071 0.104-0.132 0.046-0.378 0.393 0.025 0.094 0.117 0.087 0.011 0.099-0.017 0.058-0.148 0.092-0.004 0.433-0.080 0.12 0.003 0.113 0.057 0.064-0.025 0.16-0.157 0.043-0.187-0.152-0.156-0.049-0.294-0.324-0.138-0.042-0.162 0.022-0.232-0.217-0.161 0.273-0.204 0.14-0.94-0.137-0.128-0.161-0.556-0.052 0.045-0.115 0.345-0.067 0.241-0.209-0.044-0.043-0.191-0.016-0.169-0.482 0.055-0.142-0.153-0.101-0.121-0.289-0.384-0.275 0.035-0.093 0.195 0.066 0.344-0.15-0.001-0.324 0.114-0.289-0.019-0.286 0.153-0.411 0.015-0.235-0.148-0.091-0.141 0.087-0.278-0.048-0.124 0.025-0.104-0.203-0.016 0.121-0.062 0.033-0.175-0.276-0.179 0.013-0.032-0.123-0.239 0.099-0.067-0.024 0.099-0.243-0.029-0.057 0.040-0.126-0.34-0.523-0.065-0.216 0.040-0.093 0.282-0.21 0.024-0.272 0.224-0.099 0.248 0.022 0.449 0.058 0.255 0.223-0.012 0.101 0.148 0.177 0.202 0.081 0.36 0.293 0.179 0.004 0.013-0.446 0.081-0.202 0.085-0.073-0.066-0.25 0.091-0.115 0.025-0.206 0.22-0.314 0.039-0.372 0.212-0.343 0.055 0.002 0.093 0.191 0.166-0.162-0.075-0.158 0.028-0.067 0.139-0.009 0.106-0.233 0.201-0.062 0.117-0.127 0.109 0.113 0.125-0.088 0.292 0.064 0.057-0.073 0.085-0.011 0.159 0.019 0.135 0.111h0.086l0.076-0.089 0.019-0.493 0.087-0.206-0.178 0.012 0.079-0.212 0.142-0.036 0.299 0.087 0.127-0.16 0.076 0.088 0.005 0.182 0.125 0.022 0.206-0.079 0.025-0.144 0.056-0.054 0.118 0.068 0.048 0.113 0.042-0.174-0.082-0.024 0.023-0.157 0.175 0.095 0.041-0.016-0.044-0.043 0.28-0.008 0.257 0.174 0.121 0.029 0.055 0.192 0.133 0.006 0.306 0.126 0.109 0.104 0.193 0.043 0.062-0.111 0.112 0.019 0.113-0.113 0.027-0.145 0.113-0.148 0.042-0.22 0.353 0.295 0.168-0.059 0.374-0.282 0.188 0.029 0.152 0.085 0.156-0.034 0.059 0.084-0.027 0.136 0.16 0.076-0.105 0.138 0.136 0.124-0.006 0.225 0.281-0.060 0.027 0.057-0.043 0.155 0.185-0.016 0.116 0.086-0.041 0.077-0.077-0.103 0.032 0.081-0.053 0.189 0.178-0.059 0.153 0.219 0.111 0.005 0.201-0.219 0.107-0.011 0.217 0.325-0.108 0.143 0.135 0.003 0.055-0.087 0.146-0.035 0.062 0.109-0.029 0.088 0.058 0.127 0.201 0.18 0.366-0.194 0.319 0.008 0.063-0.086-0.089-0.256 0.213-0.108 0.047-0.205 0.071-0.017 0.27-0.293 0.061-0.014 0.097 0.062 0.118-0.055 0.086 0.098 0.067-0.074 0.143-0.021 0.126-0.182-0.389-0.338 0.001-0.108-0.175-0.062-0.064-0.198 0.047-0.076 0.136-0.008 0.359-0.14 0.183 0.105 0.074-0.189 0.063-0.014 0.3 0.146 0.047 0.116 0.088 0.025 0.173 0.165 0.014 0.118 0.135 0.008 0.096-0.051 0.080 0.038 0.207-0.247-0.037-0.154 0.109-0.196 0.086 0.043 0.274-0.226 0.067-0.211 0.084-0.011z"></path>
<path d="M4.109 12.77l0.542 0.122 0.152 0.116 0.203 0.005 0.081 0.129 0.238 0.181 0.174-0.048 0.060 0.148 0.314 0.237 0.093 0.136 0.16-0.091 0.226 0.082-0.083 0.357-0.403 0.209-0.014 0.104 0.176 0.141 0.114-0.055 0.060 0.039 0.378-0.296 0.056 0.14-0.021 0.069 0.217 0.122 0.065-0.046 0.068 0.099 0.127 0.008 0.132 0.255 0.147 0.049 0.042 0.152-0.036 0.18-0.159 0.056-0.104 0.307 0.067 0.121-0.004 0.176 0.104 0.017 0.095 0.365 0.367 0.666 0.078-0.086 0.117 0.051 0.029-0.12 0.101-0.041 0.145-0.175 0.202 0.091 0.477-0.095 0.026-0.019-0.101-0.175 0.038-0.152 0.082-0.003 0.002 0.069 0.060 0.046 0.194 0.015-0.013-0.093 0.217-0.136 0.048 0.017 0.155-0.146 0.081 0.017 0.084-0.115 0.247 0.194 0.223 0.34 0.465 0.224 0.189-0.032 0.042 0.059 0.063-0.049 0.132 0.011 0.023-0.241 0.173 0.017 0.047 0.014-0.021 0.161 0.077 0.153 0.048 0.003 0.027-0.098-0.011 0.102 0.034 0.003 0.057-0.111 0.12 0.163 0.058-0.033 0.347 0.128 0.375 0.027 0.169 0.149 0.207-0.068-0.020 0.314-0.141 0.129-0.14 0.012 0.029 0.115-0.314 0.025-0.079-0.086-0.225-0.079-0.066 0.262-0.204 0.245-0.104 0.547-0.195 0.154 0.011 0.109 0.081-0.003 0.043 0.075 0.365 0.081 0.103 0.080 0.325 0.402 0.269 0.189 0.040 0.112-0.134 0.2 0.033 0.102-0.167 0.003-0.119 0.191 0.006 0.086-0.181 0.419-0.275 0.418-0.042 0.142-0.108 0.057 0.047 0.072-0.172 0.133 0.048 0.221-0.123 0.096-0.031 0.438-0.155 0.125 0.078 0.157 0.243 0.025 0.064 0.147-0.175 0.281 0.063 0.062 0.011 0.115-0.13 0.084-0.104-0.062-0.037 0.115 0.127 0.208 0.304 0.097 0.039 0.139-0.029 0.189-0.115 0.124-0.248 0.113-0.049 0.113-0.124-0.113-0.134 0.036-0.214-0.027 0.199 0.394-0.152 0.187-0.091-0.003-0.091-0.133-0.149 0.005-0.267 0.195 0.418 0.26 0.31 0.359 0.016 0.225-0.134 0.331 0.048 0.229 0.12 0.022 0.288-0.22 0.076 0.129-0.121 0.161 0.187 0.122 0.147 0.012 0.089 0.101-0.008 0.153 0.053 0.106-0.165 0.127 0.045 0.106-0.027 0.224 0.134 0.249-0.080 0.418 0.068 0.417-0.124 0.216 0.261 0.259-0.146 0.179-0.32 0.185-0.195 0.293-0.247 0.083-0.122 0.246 0.049 0.32-0.046 0.136-0.304 0.2-0.092 0.2-0.071-0.059-0.129-0.001-0.042-0.071-0.203 0.005-0.111 0.496-0.2 0.189-0.135-0.155-0.543-0.365-0.293-0.354-0.384 0.114-0.112-0.043-0.194-0.336-0.058-0.23-0.204-0.245-0.283-0.025-0.315-0.21-0.163-0.055-0.326-0.704-0.366-0.419-0.183-0.119-0.501-0.596-0.115-0.040-0.601 0.015-0.194-0.082-0.064-0.209 0.122-0.128-0.012-0.111 0.103-0.004 0.162-0.219 0.284-0.144-0.072-0.135-0.013-0.162 0.056-0.022 0.107 0.109 0.218-0.032 0.052-0.321 0.156-0.032-0.007-0.084-0.118-0.062-0.115 0.138h-0.101l-0.118-0.088-0.084-0.16 0.036-0.169-0.053-0.063 0.020-0.079 0.065-0.012 0.13 0.080 0.172-0.102 0.068 0.023 0.303-0.238 0.119 0.031 0.117-0.202-0.115-0.064-0.048-0.181 0.136-0.121 0.205 0.067-0.009 0.242 0.175 0.008 0.201 0.136 0.309-0.111 0.082-0.185 0.12-0.122 0.186-0.007 0.036-0.088 0.16-0.017 0.039-0.061-0.011-0.27-0.126-0.058-0.018-0.076 0.134-0.192v-0.113l-0.315-0.148-0.145-0.014-0.064-0.067 0.103-0.394 0.366-0.461-0.141-0.161-0.119 0.094-0.048-0.020-0.186-0.149-0.060-0.135-0.117-0.012 0.062-0.169-0.117-0.119 0.13-0.058 0.164-0.421-0.065-0.256-0.198-0.187-0.181 0.071-0.061-0.078-0.148-0.521-0.152-0.067 0.005-0.14-0.179-0.025 0.056-0.323-0.349-0.003-0.183-0.199-0.296-0.014-0.158-0.184-0.018-0.075 0.114-0.149 0.003-0.073 0.201-0.069 0.060-0.133-0.009-0.107 0.085-0.055 0.023-0.076-0.204-0.097-0.007-0.148-0.228-0.036-0.047-0.208-0.354-0.252 0.035-0.106 0.415-0.285 0.078-0.279 0.216-0.017 0.137-0.217 0.18-0.108 0.041-0.091-0.023-0.184-0.143-0.283-0.157-0.066-0.159-0.141-0.719 1.063-0.259 0.163-0.055 0.191-0.26 0.046-0.276 0.148-0.776 0.175-0.101-0.027-0.075-0.148-0.217 0.122-0.416-0.25-0.012 0.067 0.119 0.139v0.065l-0.156-0.013-0.032-0.058-0.357 0.147-0.346 0.039-0.022 0.181-0.314-0.002 0.027-0.048-0.057-0.039-0.007-0.075 0.098-0.056-0.092-0.107 0.006-0.14-0.1-0.153-0.001-0.037 0.076-0.007-0.060-0.052 0.024-0.136-0.051-0.298 0.075-0.072 0.005-0.217 0.156-0.095 0.103-0.278 0.075-0.039-0.083-0.057 0.119-0.022-0.064-0.071 0.006-0.285 0.449-0.449-0.128-0.152 0.019-0.103 0.152-0.152 0.015-0.167 0.29-0.401 0.043-0.207 0.508-0.348 0.023-0.178 0.161-0.172 0.004-0.287 0.044-0.099 0.49-0.254 0.402-0.469 0.056-0.044z"></path>
<path d="M16.795 5.176l0.082 0.042 0.257-0.065 0.224 0.012-0.007 0.228 0.087 0.13 0.098 0.054 0.219 0.412 0.172 0.174-0.011 0.182 0.164 0.174 0.027 0.125-0.036 0.099 0.073 0.103 0.012 0.125 0.192 0.139 0.033 0.24 0.141 0.060 0.358 0.34 0.214 0.119 0.132 0.021 0.011 0.173 0.342 0.117 0.028 0.293 0.152 0.144-0.089 0.194-0.184 0.119-0.099 0.15 0.353 0.12 0.165 0.262-0.038 0.094 0.035 0.096-0.079 0.126 0.053 0.132-0.017 0.276-0.127 0.073-0.035 0.139-0.203 0.244-0.072 0.052-0.34 0.051-0.236 0.153-0.005 0.114-0.119 0.189-0.128 0.014-0.2 0.117-0.066-0.013v0.12l0.148 0.162 0.549 0.051 0.156-0.143 0.229-0.055 0.033-0.143 0.123-0.189 0.145-0.047-0.021 0.113 0.087 0.114 0.185-0.006 0.225-0.088 0.48 0.149 0.256-0.059 0.217 0.215 0.033 0.102-0.087 0.189-0.063-0.020-0.001 0.111-0.114 0.189 0.179 0.254-0.147 0.298 0.055 0.068-0.033 0.488 0.246 0.128 0.123 0.147 0.107-0.014 0.116 0.082 0.018 0.133 0.066-0.012 0.091 0.107 0.14 0.022-0.011 0.352 0.349 0.367 0.061 0.188 0.104 0.031 0.022 0.254 0.001 0.086-0.067 0.052-0.126 0.322-0.155 0.243-0.151 0.102-0.181-0.060-0.127 0.104-0.115 0.502-0.301 0.244 0.052 0.225-0.019 0.139-0.223-0.103-0.114 0.027-0.158-0.038-0.213-0.109-0.175 0.179-0.207 0.41-0.146 0.098-0.083 0.142 0.014 0.18-0.049 0.122-0.127 0.014-0.114 0.1-0.4 0.004-0.321-0.086-0.178 0.007-0.053 0.384-0.205 0.011-0.305 0.285-0.301 0.141-0.341 0.346-0.206 0.118-0.047 0.164-0.144-0.134-0.034-0.137-0.028 0.131-0.093 0.056-0.334-0.101-0.069-0.097-0.056-0.276-0.163-0.176-0.21-0.357-0.123-0.098-0.331 0.004-0.038-0.054 0.003-0.111 0.088-0.101-0.173-0.142 0.255-0.246 0.033-0.198-0.121-0.18-0.152-0.425-0.134-0.072-0.115 0.029-0.168-0.091-0.149 0.082-0.175-0.169-0.144-0.455-0.374-0.341-0.154 0.054-0.203-0.117-0.523 0.012-0.126-0.153-0.14 0.014-0.15 0.155 0.054 0.366 0.081 0.075 0.089 0.316 0.077 0.061 0.005 0.267-0.035 0.122-0.121 0.108-0.085-0.017-0.056 0.1-0.156 0.056-0.207 0.068-0.169-0.149-0.375-0.027-0.347-0.128-0.058 0.033-0.12-0.163-0.057 0.111-0.034-0.003 0.011-0.102-0.027 0.098-0.048-0.003-0.077-0.153 0.021-0.161-0.047-0.014-0.173-0.017-0.023 0.241-0.132-0.011-0.063 0.049-0.042-0.059-0.189 0.032-0.465-0.224-0.223-0.34-0.247-0.194-0.084 0.115-0.081-0.017-0.155 0.146-0.048-0.017-0.217 0.136 0.013 0.093-0.194-0.015-0.060-0.046-0.002-0.069-0.082 0.003-0.038 0.152 0.101 0.175-0.026 0.019-0.477 0.095-0.202-0.091-0.145 0.175-0.101 0.041-0.029 0.12-0.117-0.051-0.078 0.086-0.367-0.666-0.095-0.365-0.104-0.017 0.004-0.176-0.067-0.121 0.104-0.307 0.159-0.056 0.036-0.18-0.042-0.152-0.147-0.049-0.132-0.255-0.127-0.008-0.068-0.099-0.065 0.046-0.217-0.122 0.021-0.069-0.056-0.14-0.378 0.296-0.060-0.039-0.114 0.055-0.176-0.141 0.014-0.104 0.403-0.209 0.083-0.357 0.225-0.223 0.122 0.018 0.072-0.209 0.1 0.028 0.109-0.146 0.287 0.096 0.413 0.415 0.104 0.039 0.154-0.085 0.112 0.032 0.162-0.129 0.319-0.021 0.089-0.235 0.219-0.034 0.051-0.135 0.107-0.094 0.377-0.002 0.217-0.117 0.205 0.022 0.166-0.22 0.206-0.155 0.228-0.379 0.252-0.174 0.036-0.165 0.735-0.049 0.218 0.079 0.175-0.089 0.172-0.521 0.032-0.383 0.111-0.223 0.013-0.277 0.138-0.147 0.112-0.078 0.455 0.018 0.147-0.080 0.412 0.067 0.514-0.252 0.323-0.378-0.009-0.148 0.207-0.445-0.053-0.366 0.043-0.065 0.071-0.006-0.124-0.262 0.077-0.142v-0.15l0.204-0.174-0.056-0.142v-0.306l0.169-0.212 0.039-0.231 0.063-0.061 0.007-0.203-0.109-0.054 0.012-0.259 0.435-0.421-0.003-0.266 0.429-0.128 0.474-0.041 0.383-0.146 0.025-0.060z"></path>
<path d="M29.605 0.032l0.108 0.154-0.061 0.148 0.088 0.125 0.236 0.129 0.145 0.009 0.077 0.118 0.129 0.040-0.006 0.59 0.249 0.502 0.024 0.32 0.135 0.163 0.034 0.152 0.152 0.176 0.026 0.115 0.158-0.037 0.171 0.164 0.319-0.169-0.035 0.261 0.126 0.12-0.212 0.465 0.332 0.005 0.222 0.1 0.077-0.011 0.354 0.281 0.137-0.092 0.134-0.233 0.089-0.067 0.197-0.072 0.262 0.065 0.020 0.516 0.122 0.216-0.016 0.207-0.072 0.176 0.045 0.189 0.102 0.133-0.149 0.438 0.025 0.062 0.146 0.038 0.135 0.3-0.347 0.186-0.033 0.265-0.251 0.263 0.027 0.164-0.088 0.198 0.084 0.126 0.108 0.026 0.089 0.101 0.116-0.003 0.108-0.108 0.137 0.123 0.105-0.055 0.118 0.086 0.37 0.001 0.065 0.216 0.34 0.523-0.040 0.126 0.029 0.057-0.099 0.243 0.067 0.024 0.239-0.099 0.032 0.123 0.179-0.013 0.175 0.276 0.062-0.033 0.016-0.121 0.104 0.203 0.124-0.025 0.278 0.048 0.141-0.087 0.148 0.091-0.015 0.235-0.153 0.411 0.019 0.286-0.114 0.289 0.001 0.324-0.344 0.15-0.195-0.066-0.035 0.093 0.384 0.275 0.121 0.289 0.153 0.101-0.055 0.142 0.169 0.482 0.191 0.016 0.044 0.043-0.241 0.209-0.345 0.067-0.045 0.115-0.201-0.208-0.267 0.15-0.854-0.039-0.502 0.069-0.119-0.046-0.064-0.089-0.248-0.009-0.242 0.153-0.128 0.004-0.192 0.117-0.16-0.189-0.503 0.184h-0.32l-0.328-0.266-0.156-0.058-0.289-0.209-0.083-0.109-0.236-0.088-0.164-0.005-0.148-0.087-0.159 0.109-0.325-0.043-0.383 0.205-0.174 0.044h-0.709l-0.534 0.616-0.219 0.475-0.728 0.116-0.022-0.064 0.169-0.143-0.007-0.235-0.066-0.165-0.215-0.099-0.386 0.108-0.207 0.201-0.148-0.055-0.14 0.077-0.116-0.045-0.518 0.081-0.222-0.042-0.073 0.034-0.139-0.008-0.092-0.094-0.063-0.003-0.195 0.086-0.083 0.302-0.142 0.18-0.119 0.013-0.072-0.043-0.048 0.052 0.088 0.389-0.095 0.171 0.014 0.152 0.054 0.1 0.258 0.223-0.049 0.382-0.172 0.138-0.092 0.172-0.299 0.039-0.254-0.068-0.153 0.116-0.105-0.006-0.118-0.113-0.194-0.028 0.007-0.132-0.075-0.006-0.012-0.158-0.084-0.020-0.206 0.108-0.14 0.192-0.173 0.079-0.046 0.095-0.022-0.254-0.104-0.031-0.061-0.188-0.349-0.367 0.011-0.352-0.14-0.022-0.091-0.107-0.066 0.012-0.018-0.133-0.116-0.082-0.107 0.014-0.123-0.147-0.246-0.128 0.033-0.488-0.055-0.068 0.147-0.298-0.179-0.254 0.114-0.189 0.001-0.111 0.063 0.020 0.087-0.189-0.033-0.102-0.217-0.215-0.256 0.059-0.48-0.149-0.225 0.088-0.185 0.006-0.087-0.114 0.021-0.113-0.145 0.047-0.123 0.189-0.033 0.143-0.229 0.055-0.156 0.143-0.549-0.051-0.148-0.162v-0.12l0.066 0.013 0.2-0.117 0.128-0.014 0.119-0.189 0.005-0.114 0.236-0.153 0.34-0.051 0.072-0.052 0.203-0.244 0.035-0.139 0.127-0.073 0.017-0.276-0.053-0.132 0.079-0.126-0.035-0.096 0.038-0.094-0.165-0.262-0.353-0.12 0.099-0.15 0.184-0.119 0.089-0.194-0.152-0.144-0.028-0.293-0.342-0.117-0.011-0.173-0.132-0.021-0.214-0.119-0.358-0.34-0.141-0.060-0.033-0.24-0.192-0.139-0.012-0.125-0.073-0.103 0.036-0.099-0.027-0.125-0.164-0.174 0.011-0.182-0.172-0.174-0.219-0.412-0.098-0.054-0.087-0.13 0.007-0.228-0.224-0.012-0.257 0.065-0.082-0.042 0.445-0.136 0.142-0.128 0.131-0.249 0.154-0.084-0.054-0.093 0.163-0.168 0.024-0.086-0.121-0.458 0.074-0.060 0.171 0.125 0.127 0.025 0.109-0.031 0.076-0.135 0.239-0.127 0.012-0.166 0.069-0.141 0.096-0.059 0.001-0.098 0.123-0.018 0.035-0.115 0.169-0.092 0.028-0.129 0.086-0.022 0.171-0.164-0.128-0.317 0.006-0.102 0.112-0.065 0.016-0.099 0.238-0.122 0.322-0.035 0.061 0.036 0.003 0.173 0.183 0.032 0.137-0.046 0.072 0.033 0.097-0.097 0.384-0.092 0.116 0.126 0.237-0.024 0.348 0.211h0.156l0.314-0.302 0.183-0.040 0.093-0.103 0.291-0.083 0.234 0.048 0.14-0.041 0.069 0.065 0.274 0.029 0.483-0.081 0.079 0.1 0.175 0.088 0.005 0.089 0.081-0.019 0.018 0.038-0.115 0.316 0.073 0.106-0.049 0.059-0.044 0.329 0.147 0.048 0.075 0.243 0.091 0.109-0.042 0.167-0.175 0.16 0.042 0.202 0.078 0.095 0.209-0.059 0.134 0.062 0.28-0.011 0.131-0.116-0.019-0.052 0.083-0.153 0.204 0.027 0.040-0.079 0.187 0.022 0.214 0.206 0.134 0.018 0.105-0.037 0.082-0.104 0.14 0.109 0.278-0.155 0.169 0.055 0.083-0.085-0.059-0.077 0.009-0.144-0.062-0.059v-0.081l0.207-0.258 0.147 0.038 0.074-0.108 0.032-0.151-0.097-0.173 0.14-0.219-0.049-0.086 0.083-0.072-0.004-0.272 0.284-0.259 0.029-0.089 0.126 0.003 0.107-0.059 0.156 0.037 0.137-0.060 0.084 0.033 0.018 0.084 0.473-0.108 0.062-0.113-0.020-0.181 0.097-0.094-0.019-0.159 0.328-0.122 0.081-0.115 0.013-0.162 0.065-0.056 0.315-0.082-0.013-0.147 0.049-0.094 0.097 0.027z"></path>
</symbol>
</defs>
</svg>
