<svg aria-hidden="true" style="position: absolute; width: 0; height: 0; overflow: hidden;" version="1.1" xmlns="http://www.w3.org/2000/svg" xmlns:xlink="http://www.w3.org/1999/xlink">
<defs>
<symbol id="facebook" viewBox="0 0 32 32">
<path d="M28.267 2.667h-24.533c-0.59 0-1.067 0.477-1.067 1.067v24.533c0 0.59 0.477 1.067 1.067 1.067h24.533c0.59 0 1.067-0.477 1.067-1.067v-24.533c0-0.59-0.477-1.067-1.067-1.067zM25.187 10.45h-2.13c-1.67 0-1.993 0.793-1.993 1.96v2.57h3.987l-0.52 4.023h-3.467v10.33h-4.157v-10.327h-3.477v-4.027h3.477v-2.967c0-3.443 2.103-5.32 5.177-5.32 1.473 0 2.737 0.11 3.107 0.16v3.597h-0.003z"></path>
</symbol>
<symbol id="twitter" viewBox="0 0 32 32">
<path d="M28.267 2.667h-24.533c-0.59 0-1.067 0.477-1.067 1.067v24.533c0 0.59 0.477 1.067 1.067 1.067h24.533c0.59 0 1.067-0.477 1.067-1.067v-24.533c0-0.59-0.477-1.067-1.067-1.067zM23.177 12.323c0.010 0.157 0.010 0.32 0.010 0.48 0 4.893-3.727 10.53-10.537 10.53-2.1 0-4.047-0.61-5.687-1.66 0.3 0.033 0.587 0.047 0.893 0.047 1.733 0 3.327-0.587 4.597-1.58-1.627-0.033-2.993-1.1-3.46-2.567 0.57 0.083 1.083 0.083 1.67-0.067-0.838-0.17-1.59-0.625-2.131-1.287s-0.834-1.491-0.833-2.346v-0.047c0.49 0.277 1.067 0.447 1.67 0.47-0.507-0.338-0.923-0.796-1.211-1.333s-0.439-1.137-0.439-1.747c0-0.69 0.18-1.32 0.503-1.867 0.93 1.144 2.090 2.080 3.405 2.747s2.756 1.049 4.228 1.123c-0.523-2.517 1.357-4.553 3.617-4.553 1.067 0 2.027 0.447 2.703 1.167 0.837-0.157 1.637-0.47 2.35-0.89-0.277 0.857-0.857 1.58-1.627 2.037 0.747-0.080 1.467-0.287 2.133-0.577-0.503 0.74-1.133 1.397-1.857 1.92z"></path>
</symbol>
<symbol id="instagram" viewBox="0 0 32 32">
<path d="M15.997 11.554c-2.448 0-4.446 1.998-4.446 4.446s1.998 4.446 4.446 4.446c2.448 0 4.446-1.998 4.446-4.446s-1.998-4.446-4.446-4.446zM29.333 16c0-1.841 0.017-3.666-0.087-5.504-0.103-2.135-0.59-4.029-2.151-5.59-1.564-1.564-3.456-2.048-5.591-2.151-1.841-0.103-3.666-0.087-5.504-0.087-1.841 0-3.666-0.017-5.504 0.087-2.135 0.103-4.029 0.59-5.59 2.151-1.564 1.564-2.048 3.456-2.151 5.59-0.103 1.841-0.087 3.666-0.087 5.504s-0.017 3.666 0.087 5.504c0.103 2.135 0.59 4.029 2.151 5.59 1.564 1.564 3.456 2.048 5.59 2.152 1.841 0.103 3.666 0.087 5.504 0.087 1.841 0 3.666 0.017 5.504-0.087 2.135-0.103 4.029-0.59 5.591-2.152 1.564-1.564 2.048-3.456 2.151-5.59 0.107-1.838 0.087-3.662 0.087-5.504zM15.997 22.841c-3.786 0-6.841-3.055-6.841-6.841s3.055-6.841 6.841-6.841c3.786 0 6.841 3.055 6.841 6.841s-3.055 6.841-6.841 6.841zM23.119 10.476c-0.884 0-1.598-0.714-1.598-1.598s0.714-1.598 1.598-1.598c0.884 0 1.598 0.714 1.598 1.598 0 0.21-0.041 0.418-0.121 0.612s-0.198 0.37-0.346 0.519c-0.148 0.148-0.325 0.266-0.519 0.346s-0.402 0.121-0.612 0.121z"></path>
</symbol>
<symbol id="youtube" viewBox="0 0 32 32">
<path d="M28.777 9.791c-0.152-0.605-0.449-1.157-0.863-1.6s-0.929-0.762-1.494-0.926c-2.080-0.599-10.42-0.599-10.42-0.599s-8.339 0-10.42 0.596c-0.565 0.163-1.081 0.482-1.495 0.925s-0.711 0.995-0.863 1.601c-0.557 2.229-0.557 6.879-0.557 6.879s0 4.65 0.557 6.876c0.307 1.229 1.211 2.197 2.357 2.525 2.080 0.599 10.42 0.599 10.42 0.599s8.339 0 10.42-0.599c1.149-0.328 2.051-1.296 2.357-2.525 0.557-2.226 0.557-6.876 0.557-6.876s0-4.65-0.557-6.876zM13.352 20.934v-8.535l6.905 4.236-6.905 4.299z"></path>
</symbol>
<symbol id="arrow" viewBox="0 0 42 32">
<path d="M41.414 17.414c0.781-0.781 0.781-2.047 0-2.828l-12.728-12.728c-0.781-0.781-2.047-0.781-2.828 0s-0.781 2.047 0 2.828l11.314 11.314-11.314 11.314c-0.781 0.781-0.781 2.047 0 2.828s2.047 0.781 2.828 0l12.728-12.728zM0 18h40v-4h-40v4z"></path>
</symbol>
<symbol id="middle" viewBox="0 0 32 32">
<path d="M28.512 15.744h-25.287c-0.675 0-1.225 0.5-1.225 1.125v1.25c0 0.625 0.55 1.125 1.225 1.125h0.65v4.187c0 2.4 1.5 4.35 3.337 4.35h17.075c1.837 0 3.337-1.95 3.337-4.35v-4.187h0.9c0.675 0 1.225-0.5 1.225-1.125v-1.25c0-0.625-0.55-1.125-1.238-1.125zM26.625 17.656v0.588h-21.75v-0.588c0-0.312 0.037-0.612 0.088-0.912h21.538c0.075 0.3 0.125 0.538 0.125 0.912zM3.225 18.244c-0.138 0-0.225-0.075-0.225-0.125v-1.25c0-0.050 0.087-0.125 0.225-0.125h0.725c-0.050 0.3-0.075 0.6-0.075 0.912v0.588h-0.65zM26.625 23.431c0 1.85-1.050 3.35-2.337 3.35h-17.088c-1.288 0-2.338-1.5-2.338-3.35v-4.187h21.75v4.187h0.013zM28.75 18.119c0 0.050-0.087 0.125-0.225 0.125h-0.9v-0.588c0-0.363-0.038-0.65-0.1-0.912h0.987c0.138 0 0.225 0.075 0.225 0.125v1.25h0.012z"></path>
<path d="M8.3 10.444c0.375 1.2 1.762 1.825 2.45 1.988 0.037 0.012 0.075 0.012 0.112 0.012 0.225 0 0.425-0.15 0.488-0.387 0.063-0.262-0.1-0.537-0.375-0.6-0.587-0.137-1.525-0.637-1.725-1.313-0.137-0.425 0.050-0.912 0.525-1.45 0.662-0.737 0.938-1.488 0.838-2.25-0.162-1.2-1.262-1.925-1.3-1.95-0.238-0.15-0.538-0.088-0.688 0.15-0.15 0.225-0.088 0.537 0.15 0.688 0.013 0 0.762 0.513 0.863 1.263 0.063 0.45-0.137 0.938-0.587 1.438-0.925 1.025-0.913 1.875-0.75 2.412z"></path>
<path d="M13.512 10.444c0.375 1.2 1.762 1.825 2.45 1.988 0.037 0.012 0.075 0.012 0.112 0.012 0.225 0 0.425-0.15 0.488-0.387 0.063-0.262-0.1-0.537-0.375-0.6-0.588-0.137-1.525-0.637-1.725-1.313-0.137-0.425 0.050-0.912 0.525-1.45 0.662-0.737 0.938-1.488 0.838-2.25-0.162-1.2-1.262-1.925-1.313-1.95-0.238-0.15-0.537-0.088-0.687 0.15-0.15 0.225-0.088 0.537 0.15 0.688 0.013 0 0.762 0.513 0.863 1.263 0.063 0.45-0.137 0.938-0.588 1.438-0.912 1.025-0.912 1.875-0.738 2.412z"></path>
<path d="M18.55 10.444c0.375 1.2 1.762 1.825 2.45 1.988 0.038 0.012 0.075 0.012 0.112 0.012 0.225 0 0.425-0.15 0.488-0.387 0.063-0.262-0.1-0.537-0.375-0.6-0.588-0.137-1.525-0.637-1.725-1.313-0.137-0.425 0.050-0.912 0.525-1.45 0.663-0.737 0.938-1.488 0.837-2.25-0.163-1.212-1.262-1.937-1.313-1.962-0.238-0.15-0.538-0.088-0.687 0.15-0.15 0.225-0.088 0.537 0.15 0.688 0.013 0 0.762 0.513 0.863 1.262 0.063 0.45-0.137 0.938-0.587 1.438-0.913 1.037-0.9 1.887-0.738 2.425z"></path>
</symbol>
<symbol id="korea" viewBox="0 0 32 32">
<path d="M28.799 15.825c0-0.122 0-0.268-0.012-0.427-0.012-0.256-0.232-0.463-0.488-0.463h-0.329c-0.134-3.498-2.986-6.302-6.485-6.302-1.719 0-3.279 0.683-4.449 1.78-0.244-0.5-0.646-1.036-1.231-1.597-0.646-0.634-0.975-1.268-1.097-1.853h12.97c0.268 0 0.488-0.219 0.488-0.488s-0.219-0.488-0.488-0.488h-13.019c0.049-0.561 0.244-1 0.366-1.231l12.714-1.39c0.268-0.024 0.463-0.268 0.427-0.536-0.024-0.268-0.268-0.463-0.536-0.427l-18.346 2.011c-0.268 0.024-0.463 0.268-0.427 0.536 0.024 0.244 0.244 0.439 0.488 0.439 0.012 0 0.037 0 0.049 0l0.28-0.024c-0.073 0.195-0.122 0.402-0.134 0.646h-0.195c-0.268 0-0.488 0.219-0.488 0.488s0.219 0.488 0.488 0.488h0.378c0.232 0.549 0.683 1.048 1.365 1.499 1.17 0.78 1.109 1.146 1.109 1.158-0.024 0.146-0.378 0.402-1.195 0.561-0.329-0.073-0.67-0.11-1.024-0.11-2.67 0-4.852 2.158-4.925 4.839h-1.353c-0.256 0-0.475 0.207-0.488 0.463-0.012 0.158-0.012 0.293-0.012 0.427 0 4.522 3.072 8.435 7.485 10.203-0.585 0.024-1.048 0.512-1.048 1.097v1.378c0 0.61 0.488 1.097 1.097 1.097h9.837c0.61 0 1.097-0.488 1.097-1.097v-1.378c0-0.439-0.256-0.817-0.622-0.987 4.559-1.719 7.753-5.693 7.753-10.313zM21.497 9.609c2.962 0 5.376 2.365 5.51 5.327h-0.707c-0.146-2.511-2.28-4.51-4.888-4.51s-4.754 1.999-4.888 4.51h-0.536c0.037-0.683 0.183-1.341 0.439-1.938 0.427-0.293 0.719-0.658 0.829-1.097 0.024-0.11 0.049-0.219 0.061-0.341 1-1.195 2.499-1.95 4.181-1.95zM24.154 14.936c-0.134-1.365-1.317-2.438-2.755-2.438s-2.621 1.073-2.755 2.438h-1.134c0.146-1.975 1.841-3.535 3.913-3.535s3.767 1.56 3.913 3.535h-1.182zM23.167 14.936h-3.547c0.134-0.829 0.878-1.463 1.768-1.463 0.902 0 1.646 0.634 1.78 1.463zM16.316 11.242c-0.244 0.329-0.463 0.695-0.658 1.073-0.244 0.122-0.5 0.207-0.658 0.244-0.256 0.061-0.414 0.329-0.354 0.597 0.061 0.219 0.256 0.366 0.475 0.366 0.037 0 0.061 0 0.098-0.012-0.122 0.463-0.195 0.939-0.207 1.426h-0.11c-0.024-1.048-0.378-2.024-0.963-2.816 0.768-0.28 1.256-0.731 1.39-1.292 0.134-0.536-0.061-1.109-0.561-1.719 0.122 0.134 0.244 0.28 0.378 0.414 0.67 0.658 1.073 1.256 1.17 1.719zM14.683 9.024c-0.219-0.256-0.5-0.524-0.841-0.805-0.524-0.427-0.829-0.853-0.987-1.243h0.878c0.098 0.646 0.378 1.341 0.951 2.048zM13.683 6h-0.987c0.037-0.463 0.232-0.829 0.354-1.012l0.866-0.098c-0.098 0.305-0.195 0.683-0.232 1.109zM10.819 5.22l1.097-0.122c-0.098 0.256-0.171 0.561-0.195 0.89h-1.219c0.037-0.329 0.207-0.609 0.317-0.768zM11.611 7.658c-0.341-0.219-0.597-0.451-0.78-0.695h0.987c0.171 0.634 0.585 1.329 1.402 1.999 1.158 0.951 1.195 1.451 1.146 1.621-0.073 0.293-0.512 0.561-1.17 0.719-0.244-0.219-0.512-0.402-0.792-0.573 0.414-0.232 0.67-0.536 0.744-0.902 0.146-0.67-0.354-1.377-1.536-2.17zM9.965 11.071c2.133 0 3.876 1.719 3.95 3.864h-0.256c-0.073-1.95-1.731-3.511-3.742-3.511-2.024 0-3.669 1.56-3.742 3.511h-0.146c0.061-2.145 1.804-3.864 3.937-3.864zM12.062 14.936c-0.073-1.109-1.024-1.987-2.17-1.987s-2.097 0.878-2.17 1.987h-0.585c0.073-1.414 1.292-2.535 2.767-2.535s2.694 1.121 2.767 2.535h-0.61zM11.087 14.936h-2.377c0.073-0.573 0.585-1.012 1.195-1.012 0.597 0 1.109 0.439 1.182 1.012zM20.571 27.004c0.073 0 0.122 0.049 0.122 0.122v1.378c0 0.073-0.049 0.122-0.122 0.122h-9.837c-0.073 0-0.122-0.049-0.122-0.122v-1.378c0-0.073 0.049-0.122 0.122-0.122h4.181c0.354 0.024 0.719 0.037 1.085 0.037s0.731-0.012 1.085-0.037h3.486zM17.048 26.028h-2.097c-5.997-0.463-10.727-4.815-10.776-10.118h23.648c-0.049 5.303-4.778 9.654-10.776 10.118z"></path>
</symbol>
<symbol id="western" viewBox="0 0 32 32">
<path d="M27.776 21.385c0.54-0.432 0.865-1 0.865-1.648 0-0.784-0.486-1.473-1.27-1.919 0.784-0.446 1.284-1.135 1.284-1.932 0-0.527-0.216-1-0.595-1.405 0.081-0.027 0.149-0.054 0.216-0.108 0.878-0.757 1.324-1.567 1.324-2.446 0-1.567-1.486-3-4.175-4.027-2.527-0.959-5.878-1.5-9.432-1.5s-6.905 0.527-9.431 1.5c-2.675 1.040-4.162 2.473-4.162 4.040 0 0.878 0.446 1.689 1.324 2.446 0.068 0.068 0.162 0.108 0.243 0.122-0.378 0.392-0.595 0.865-0.595 1.392 0 0.784 0.486 1.473 1.27 1.919-0.784 0.446-1.284 1.135-1.284 1.932 0 0.622 0.311 1.176 0.824 1.608-0.838 0.378-1.432 1.176-1.432 2.121 0 1.297 1.108 2.338 2.486 2.338h21.376c1.365 0 2.486-1.054 2.486-2.338 0.014-0.919-0.527-1.703-1.324-2.094zM5.724 20.939l1.23-1.73 0.635 1.905h-0.743c-0.405 0-0.784-0.068-1.122-0.176zM19.831 14.521l-3.783 2.635-3.662-2.635h7.445zM26.019 18.453l-0.459 1.554c-0.068-0.162-0.135-0.311-0.189-0.473-0.189-0.473-0.365-0.865-0.486-1.176h0.297c0.284 0 0.568 0.041 0.838 0.095zM22.52 20.182l-0.784-1.824h1.459c-0.122 0.311-0.27 0.703-0.446 1.189-0.081 0.216-0.162 0.432-0.23 0.635zM16.858 18.358l-0.973 1.973-0.797-1.973h1.77zM7.805 18.358h1.959l-1.27 2.040-0.689-2.040zM10.656 18.966l0.946 2.148h-2.284l1.338-2.148zM11.561 18.358h1.851l-0.973 2.013-0.878-2.013zM14.237 19.155l0.797 1.973h-1.743l0.946-1.973zM17.669 19.155l0.757 1.959h-1.716l0.959-1.959zM18.52 18.358h1.554l-0.824 1.892-0.73-1.892zM20.898 19.169l0.838 1.946h-1.689l0.851-1.946zM24.047 19.155c0.23 0.541 0.513 1.243 0.797 1.959h-1.513c0.257-0.703 0.5-1.405 0.716-1.959zM26.425 20.899l0.595-2.013c0.338 0.243 0.54 0.54 0.54 0.851 0 0.473-0.459 0.905-1.135 1.162zM25.195 17.277h-7.445l3.959-2.756h3.486c1.27 0 2.392 0.649 2.392 1.378s-1.122 1.378-2.392 1.378zM3.481 11.94c0-1.081 1.27-2.175 3.473-3.013 2.405-0.919 5.621-1.419 9.040-1.419s6.635 0.5 9.040 1.419c2.216 0.838 3.473 1.946 3.473 3.013 0 0.5-0.27 1-0.811 1.5h-23.403c-0.527-0.5-0.811-1-0.811-1.5zM6.859 14.521h3.662l3.824 2.756h-7.486c-1.27 0-2.392-0.649-2.392-1.378 0.013-0.743 1.122-1.378 2.392-1.378zM6.197 18.412l-1.419 1.986c-0.203-0.203-0.324-0.432-0.324-0.662 0-0.608 0.757-1.149 1.743-1.324zM26.627 24.723h-21.376c-0.77 0-1.405-0.568-1.405-1.257s0.635-1.257 1.405-1.257h21.39c0.77 0 1.405 0.568 1.405 1.257s-0.635 1.257-1.419 1.257z"></path>
<path d="M9.007 10.913c0.297 0 0.54-0.243 0.54-0.54v-0.176c0-0.297-0.243-0.54-0.54-0.54s-0.54 0.243-0.54 0.54v0.176c0 0.297 0.243 0.54 0.54 0.54z"></path>
<path d="M10.183 9.994c0.297 0 0.54-0.243 0.54-0.54v-0.176c0-0.297-0.243-0.54-0.54-0.54s-0.54 0.243-0.54 0.54v0.176c0 0.297 0.243 0.54 0.54 0.54z"></path>
<path d="M9.953 11.116v0.176c0 0.297 0.243 0.54 0.54 0.54s0.54-0.243 0.54-0.54v-0.176c0-0.297-0.243-0.54-0.54-0.54s-0.54 0.243-0.54 0.54z"></path>
</symbol>
<symbol id="chinese" viewBox="0 0 32 32">
<path d="M30.513 11.076c-0.198-0.408-0.553-0.698-0.988-0.817 0.237-0.422 0.277-0.935 0.066-1.383-0.184-0.382-0.514-0.672-0.935-0.804-0.408-0.119-0.843-0.092-1.238 0.092-0.646 0.303-1.001 1.067-1.001 1.739-0.777 0.356-2.609 1.186-3.518 1.607-0.092-0.013-0.198-0.026-0.316-0.026-0.553 0-1.581 0.158-2.688 0.382-1.897-1.449-4.15-2.226-6.521-2.226-5.928 0-10.777 4.874-10.974 10.948-0.685 0.171-1.199 0.777-1.199 1.502 0 0.856 0.725 1.555 1.607 1.555h21.685c0.883 0 1.607-0.698 1.607-1.555s-0.725-1.555-1.607-1.555h-0.132c-0.066-1.792-0.553-3.544-1.397-5.098l1.199-0.935c0.079-0.066 0.145-0.158 0.184-0.263 0-0.013 0.013-0.053 0.026-0.105 0.896-0.422 2.424-1.146 3.201-1.515 0.408 0.672 1.317 0.935 2.095 0.566 0.817-0.382 1.199-1.331 0.843-2.108zM25.019 22.089c0 0.277-0.25 0.501-0.553 0.501h-21.685c-0.303 0-0.553-0.224-0.553-0.501s0.25-0.501 0.553-0.501h21.685c0.303 0 0.553 0.224 0.553 0.501zM23.28 20.535h-19.854c0.224-5.467 4.598-9.841 9.92-9.841 1.831 0 3.57 0.501 5.098 1.462-1.686 0.369-3.215 0.751-3.346 0.777-0.040 0.013-0.461 0.211-0.461 0.211-1.199 0.566-2.398 2.793-1.541 4.611 0.632 1.344 2.213 1.963 3.412 1.963 0.435 0 0.83-0.079 1.133-0.224 0.158-0.079 0.316-0.171 0.448-0.303l3.992-3.096c0.725 1.357 1.133 2.872 1.199 4.44zM17.444 18.361c-0.013 0.013-0.026 0.013-0.026 0.026-0.066 0.053-0.132 0.105-0.211 0.132-0.171 0.079-0.408 0.119-0.685 0.119-0.896 0-2.029-0.461-2.45-1.357-0.593-1.265 0.343-2.872 1.041-3.201l0.316-0.145c1.62-0.408 5.915-1.397 7.141-1.397 0.105 0 0.145 0.013 0.158 0.013 0.264 0.066 0.448 0.184 0.54 0.369 0.132 0.237 0.132 0.553 0.105 0.777v0.013c0 0.026-0.013 0.053-0.013 0.079l-5.915 4.572zM29.196 12.235c-0.316 0.145-0.659 0.053-0.764-0.184-0.013-0.026-0.145-0.316-0.145-0.329l-0.211-0.514-0.501 0.237c0 0-1.884 0.896-3.188 1.515-0.040-0.184-0.105-0.369-0.198-0.553-0.053-0.092-0.105-0.171-0.171-0.25 1.304-0.593 3.188-1.449 3.188-1.449l0.435-0.198-0.145-0.448c-0.079-0.264 0.105-0.804 0.382-0.935 0.158-0.079 0.329-0.092 0.487-0.040 0.079 0.026 0.211 0.092 0.29 0.237 0.105 0.224-0.013 0.514-0.277 0.672l-0.395 0.25 0.474 1.159 0.474-0.119c0.277-0.066 0.553 0.026 0.646 0.237 0.092 0.237-0.066 0.566-0.382 0.711z"></path>
<path d="M5.521 17.262c-0.29 0-0.527 0.237-0.527 0.527v0.171c0 0.29 0.237 0.527 0.527 0.527s0.527-0.237 0.527-0.527v-0.171c0-0.29-0.237-0.527-0.527-0.527z"></path>
<path d="M7.207 17.064v-0.171c0-0.29-0.237-0.527-0.527-0.527s-0.527 0.237-0.527 0.527v0.171c0 0.29 0.237 0.527 0.527 0.527s0.527-0.237 0.527-0.527z"></path>
<path d="M6.97 18.157c-0.29 0-0.527 0.237-0.527 0.527v0.171c0 0.29 0.237 0.527 0.527 0.527s0.527-0.237 0.527-0.527v-0.171c0-0.29-0.237-0.527-0.527-0.527z"></path>
</symbol>
</defs>
</svg>
